<svg width="156" height="32" viewBox="0 0 156 32" fill="none" xmlns="http://www.w3.org/2000/svg">
<g clip-path="url(#clip0_508_3348)">
<path d="M36.3819 12.1277C37.3883 11.7002 38.3919 11.2687 39.3926 10.8331C39.8227 10.6458 40.0464 10.3045 39.9883 9.84139C39.7733 8.15496 39.0442 6.70152 37.9095 5.45113C37.556 5.06283 37.1532 5.03932 36.7109 5.30863C35.7482 5.9007 34.7969 6.51129 33.8313 7.09837C33.4729 7.31211 33.3768 7.61206 33.4069 8.00178C33.4084 8.06275 33.3959 8.12326 33.3703 8.17869C33.3447 8.23412 33.3067 8.28303 33.2593 8.32168C31.1866 9.53811 29.1085 10.7455 27.0249 11.9439C26.4779 12.2581 26.3797 12.4184 26.503 13.0468C25.8858 13.3596 25.265 13.6802 24.6392 13.9866C24.5452 14.0183 24.4424 14.0127 24.3525 13.9709C24.0306 13.8284 23.7589 13.9317 23.5367 14.1476C23.3145 14.3635 23.2987 14.6527 23.4435 14.9349C23.6643 15.3673 23.8908 15.7969 24.1087 16.2301C24.2457 16.5023 24.4543 16.6484 24.7647 16.6241C25.075 16.5999 25.2815 16.4674 25.3768 16.1653C25.3979 16.0899 25.4451 16.0242 25.5102 15.9801C26.1403 15.6552 26.7754 15.3388 27.3983 15.0275C27.8758 15.4835 28.0084 15.5006 28.5862 15.207C28.8894 15.0531 29.194 14.9021 29.4385 14.7795C30.0736 15.2868 30.4177 15.8696 30.1381 16.6825C30.0514 16.6825 29.9453 16.6875 29.8399 16.6825C29.4715 16.6612 29.1733 16.7809 29.0256 17.1314C28.8779 17.4819 28.9704 17.794 29.2464 18.0676C29.281 18.1133 29.3046 18.1663 29.3153 18.2225C29.3259 18.2787 29.3235 18.3367 29.308 18.3918C28.2077 21.2317 27.0965 24.073 25.9754 26.9514C22.1482 22.2776 18.8858 17.2775 15.6457 12.2624C15.5948 12.1833 15.6134 12.0173 15.6629 11.9261C15.86 11.562 16.0851 11.2136 16.2958 10.8574C16.4844 10.5375 16.432 10.2432 16.1646 10.0836C15.8973 9.92403 15.627 10.0053 15.4177 10.3337C15.265 10.5724 15.1195 10.816 14.9503 11.0896C14.8356 10.9265 14.7388 10.7954 14.6492 10.6622C14.5596 10.5289 14.4801 10.3772 14.3833 10.2411C14.1553 9.9276 13.7166 9.91548 13.5668 10.2568C13.4879 10.4363 13.5252 10.7241 13.6198 10.908C13.8177 11.2955 14.0879 11.6468 14.3267 12.0102C14.0206 12.5124 13.7288 13.0012 13.4277 13.4843C9.86644 19.1954 5.99332 24.6993 1.99762 30.1212C1.622 30.6321 1.25497 30.9876 0.556046 30.875C0.193322 30.8166 -0.0303337 31.1194 -0.000226189 31.4913C0.0305982 31.8425 0.26429 32.0007 0.755329 32.0007H38.8915C39.3431 32.0007 39.5776 31.7934 39.5711 31.4108C39.5654 31.046 39.3424 30.865 38.8937 30.8629C38.5109 30.8629 38.1281 30.8494 37.7467 30.8672C37.5259 30.8771 37.417 30.8173 37.3331 30.5971C35.7924 26.5522 34.244 22.5103 32.6879 18.4716C32.6163 18.2892 32.5969 18.1681 32.7869 18.0227C33.0736 17.8054 33.1224 17.4862 32.9926 17.1549C32.8672 16.835 32.6249 16.6726 32.2722 16.6818C32.1095 16.6861 31.946 16.6818 31.751 16.6818C31.751 16.3612 31.7618 16.0784 31.7474 15.7969C31.7374 15.5903 31.7883 15.4557 31.9804 15.3338C32.3847 15.0752 32.6292 14.6841 32.6055 14.2024C32.5905 13.8847 32.4621 13.5726 32.3797 13.2313L35.303 11.6945C35.6564 12.2139 35.9209 12.3258 36.3819 12.1277ZM36.9417 6.64167C36.9998 6.42793 37.146 6.35668 37.3517 6.47068C37.3935 6.49379 37.431 6.52365 37.4629 6.55902C38.2249 7.39974 38.6815 8.38295 38.9037 9.5222C38.8593 9.63691 38.8256 9.85777 38.7604 9.86846C38.6875 9.87295 38.6146 9.86263 38.5459 9.83813C38.4773 9.81363 38.4144 9.77546 38.3611 9.72596C37.5905 8.97003 37.151 8.03598 36.9324 6.99292C36.9091 6.87756 36.9123 6.75849 36.9417 6.64452V6.64167ZM27.0313 30.8429C25.2521 30.8429 23.4722 30.8358 21.693 30.8479C21.4256 30.8479 21.2987 30.7596 21.1819 30.5259C19.3787 26.9279 17.5694 23.3332 15.7539 19.7419C15.7245 19.6828 15.6872 19.6279 15.6234 19.5196C14.1489 23.3249 12.6944 27.0782 11.2399 30.833H5.7159C9.40336 25.2294 12.3052 19.2717 14.9532 13.0853C18.76 19.3104 23.0267 25.2459 27.7181 30.8429H27.0313ZM30.3761 30.8615C29.9969 30.8615 29.6399 30.8729 29.2851 30.8536C29.1725 30.8364 29.0703 30.7783 28.9983 30.6905C28.3166 29.8669 27.6363 29.0411 26.9797 28.1968C26.9044 28.0999 26.913 27.8833 26.9632 27.753C27.8951 25.327 28.8414 22.9081 29.7826 20.4857C29.9541 20.0133 30.1518 19.5507 30.3747 19.1L30.3761 30.8615ZM36.1783 30.8494H31.6342V19.2631L31.7095 19.2503L36.1783 30.8494Z" fill="#004151"/>
<path d="M38.9042 9.52505C38.8598 9.63976 38.8261 9.86062 38.7608 9.87131C38.688 9.8758 38.6151 9.86548 38.5464 9.84098C38.4778 9.81648 38.4149 9.77831 38.3615 9.72882C37.5909 8.97288 37.1515 8.03883 36.9329 6.99577C36.9097 6.87887 36.9136 6.75826 36.9443 6.6431C37.0024 6.42935 37.1486 6.35811 37.3544 6.4721C37.3961 6.49522 37.4336 6.52507 37.4655 6.56045C38.2253 7.40259 38.6848 8.3858 38.9042 9.52505Z" fill="#00BCD7"/>
<path d="M27.718 30.8429H27.0312C25.252 30.8429 23.4721 30.8358 21.6929 30.8479C21.4255 30.8479 21.2986 30.7596 21.1818 30.5259C19.3787 26.9279 17.5693 23.3332 15.7538 19.7419C15.7244 19.6828 15.6871 19.6279 15.6233 19.5196C14.1488 23.3249 12.6943 27.0782 11.2398 30.833H5.71582C9.40328 25.2294 12.3051 19.2717 14.9531 13.0853C18.7599 19.3104 23.0266 25.2459 27.718 30.8429Z" fill="#00BCD7"/>
<path d="M10.0413 0.167431C8.46427 1.0224 7.55388 2.24286 8.15101 4.044C8.71732 5.75393 10.0922 6.28971 11.8227 6.06813C11.5166 6.86966 10.1833 7.466 8.85997 7.4147C7.39331 7.35699 5.98184 6.22131 5.54169 4.74364C5.31936 3.99939 5.33818 3.20448 5.59548 2.47144C5.85277 1.73839 6.33552 1.10435 6.97539 0.659037C7.90944 0.0142495 8.92306 -0.173131 10.0413 0.167431Z" fill="#004151"/>
<path d="M19.2834 3.85163C19.2182 3.88013 19.1537 3.91076 19.087 3.93712C19.0016 3.97826 18.9126 4.01142 18.821 4.03616C18.0963 4.17865 17.7386 4.65173 17.5709 5.3293C17.5264 5.50741 17.4017 5.6663 17.3135 5.83444C17.2189 5.67342 17.0705 5.52166 17.039 5.34996C16.8956 4.58262 16.4655 4.13377 15.6927 3.98272C15.5902 3.96277 15.5078 3.84023 15.416 3.76471C15.5114 3.69346 15.5974 3.57804 15.7028 3.55524C16.4913 3.3814 16.94 2.89834 17.0691 2.11106C17.0787 2.02885 17.1047 1.94938 17.1458 1.87737C17.1897 1.8028 17.2577 1.74509 17.3386 1.7135C17.3759 1.70352 17.4648 1.80398 17.4942 1.87024C17.552 1.9995 17.5953 2.13475 17.6232 2.2735C17.7551 2.94607 18.1372 3.36928 18.8232 3.51819C18.9666 3.55025 19.102 3.64929 19.2404 3.71768C19.2519 3.76186 19.2655 3.80674 19.2834 3.85163Z" fill="#004151"/>
<path d="M26.3189 3.50822C26.2472 3.33224 26.1533 3.16124 26.116 2.97814C26.007 2.43737 25.6959 2.12958 25.1454 2.04052C25.0242 2.02128 24.9167 1.9194 24.8027 1.85528C24.9074 1.78047 25.002 1.67217 25.1189 1.63655C25.6543 1.47482 26.0078 1.15706 26.1067 0.59349C26.1136 0.546569 26.1304 0.501642 26.1561 0.461682C26.2278 0.356949 26.3103 0.257915 26.3884 0.156032C26.4558 0.258628 26.5705 0.356236 26.5827 0.465245C26.6594 1.11929 26.9776 1.53395 27.6579 1.63655C27.7447 1.65009 27.8185 1.74841 27.8988 1.80683C27.8178 1.87808 27.7468 1.98637 27.6543 2.00775C27.0185 2.15452 26.6823 2.55136 26.5862 3.18262C26.5698 3.29519 26.4809 3.39636 26.425 3.50465L26.3189 3.50822Z" fill="#004151"/>
<path d="M24.0927 8.4428C23.3572 8.53329 23.0311 8.99141 22.978 9.69462L22.8784 9.64261C22.7572 9.37187 22.6927 9.04627 22.4984 8.84606C22.3042 8.64586 21.9773 8.56535 21.6855 8.37013C22.3192 8.15211 22.7479 7.77522 22.826 7.07485L22.9379 7.12045C23.0526 7.39333 23.1114 7.7175 23.2963 7.92555C23.4812 8.13359 23.7895 8.20127 24.0447 8.33166L24.0927 8.4428Z" fill="#004151"/>
</g>
<path d="M55.2073 12.3438C55.1278 11.5994 54.7925 11.0199 54.2016 10.6051C53.6164 10.1903 52.855 9.98295 51.9175 9.98295C51.2584 9.98295 50.6931 10.0824 50.2215 10.2812C49.7499 10.4801 49.3891 10.75 49.1391 11.0909C48.8891 11.4318 48.7613 11.821 48.7556 12.2585C48.7556 12.6222 48.838 12.9375 49.0028 13.2045C49.1732 13.4716 49.4033 13.6989 49.6931 13.8864C49.9829 14.0682 50.3039 14.2216 50.6562 14.3466C51.0084 14.4716 51.3635 14.5767 51.7215 14.6619L53.3579 15.071C54.017 15.2244 54.6505 15.4318 55.2584 15.6932C55.8721 15.9545 56.4204 16.2841 56.9033 16.6818C57.392 17.0795 57.7783 17.5597 58.0624 18.1222C58.3465 18.6847 58.4885 19.3437 58.4885 20.0994C58.4885 21.1222 58.2272 22.0227 57.7045 22.8011C57.1817 23.5739 56.426 24.179 55.4374 24.6165C54.4545 25.0483 53.2641 25.2642 51.8664 25.2642C50.5084 25.2642 49.3295 25.054 48.3295 24.6335C47.3351 24.2131 46.5567 23.5994 45.9942 22.7926C45.4374 21.9858 45.1363 21.0028 45.0908 19.8437H48.2016C48.2471 20.4517 48.4346 20.9574 48.7641 21.3608C49.0937 21.7642 49.5226 22.0653 50.051 22.2642C50.5851 22.4631 51.1817 22.5625 51.8408 22.5625C52.5283 22.5625 53.1306 22.4602 53.6476 22.2557C54.1704 22.0455 54.5795 21.7557 54.8749 21.3864C55.1704 21.0114 55.3209 20.5739 55.3266 20.0739C55.3209 19.6193 55.1874 19.2443 54.926 18.9489C54.6647 18.6477 54.2982 18.3977 53.8266 18.1989C53.3607 17.9943 52.8153 17.8125 52.1903 17.6534L50.2045 17.142C48.767 16.7727 47.6306 16.2131 46.7954 15.4631C45.9658 14.7074 45.551 13.7045 45.551 12.4545C45.551 11.4261 45.8295 10.5256 46.3863 9.75284C46.9488 8.98011 47.713 8.38068 48.6789 7.95454C49.6448 7.52273 50.7385 7.30682 51.9601 7.30682C53.1988 7.30682 54.284 7.52273 55.2158 7.95454C56.1533 8.38068 56.8891 8.97443 57.4232 9.73579C57.9573 10.4915 58.2329 11.3608 58.2499 12.3438H55.2073Z" fill="#004151"/>
<path d="M76.8934 29.9091C76.4729 29.9091 76.0837 29.875 75.7258 29.8068C75.3735 29.7443 75.0922 29.6705 74.882 29.5852L75.5979 27.1818C76.0468 27.3125 76.4474 27.375 76.7996 27.3693C77.1519 27.3636 77.4616 27.2528 77.7286 27.0369C78.0013 26.8267 78.2314 26.4744 78.4189 25.9801L78.6832 25.2727L73.936 11.9091H77.2087L80.2258 21.7955H80.3621L83.3877 11.9091H86.6689L81.4275 26.5852C81.1832 27.2784 80.8593 27.8722 80.4559 28.3665C80.0525 28.8665 79.5582 29.2472 78.9729 29.5085C78.3934 29.7756 77.7002 29.9091 76.8934 29.9091Z" fill="#004151"/>
<path d="M103.881 13.4347H100.693C100.602 12.9119 100.435 12.4489 100.19 12.0455C99.9459 11.6364 99.642 11.2898 99.2783 11.0057C98.9147 10.7216 98.4999 10.5085 98.034 10.3665C97.5738 10.2188 97.0766 10.1449 96.5425 10.1449C95.5937 10.1449 94.7528 10.3835 94.0198 10.8608C93.2868 11.3324 92.713 12.0256 92.2982 12.9403C91.8834 13.8494 91.676 14.9602 91.676 16.2727C91.676 17.608 91.8834 18.733 92.2982 19.6477C92.7187 20.5568 93.2925 21.2443 94.0198 21.7102C94.7528 22.1705 95.5908 22.4006 96.534 22.4006C97.0567 22.4006 97.5454 22.3324 97.9999 22.196C98.4601 22.054 98.8721 21.8466 99.2357 21.5739C99.605 21.3011 99.9147 20.9659 100.165 20.5682C100.42 20.1705 100.597 19.7159 100.693 19.2045L103.881 19.2216C103.761 20.0511 103.503 20.8295 103.105 21.5568C102.713 22.2841 102.199 22.9261 101.562 23.483C100.926 24.0341 100.182 24.4659 99.3295 24.7784C98.4772 25.0852 97.5312 25.2386 96.4914 25.2386C94.9573 25.2386 93.588 24.8835 92.3834 24.1733C91.1789 23.4631 90.23 22.4375 89.5368 21.0966C88.8437 19.7557 88.4971 18.1477 88.4971 16.2727C88.4971 14.392 88.8465 12.7841 89.5454 11.4489C90.2442 10.108 91.1959 9.08239 92.4005 8.37216C93.605 7.66193 94.9687 7.30682 96.4914 7.30682C97.463 7.30682 98.3664 7.44318 99.2016 7.71591C100.037 7.98864 100.781 8.3892 101.435 8.91761C102.088 9.44034 102.625 10.0824 103.045 10.8438C103.472 11.5994 103.75 12.4631 103.881 13.4347Z" fill="#004151"/>
<path d="M110.407 25.2642C109.577 25.2642 108.83 25.1165 108.165 24.821C107.506 24.5199 106.984 24.0767 106.597 23.4915C106.217 22.9063 106.026 22.1847 106.026 21.3267C106.026 20.5881 106.163 19.9773 106.435 19.4943C106.708 19.0114 107.08 18.625 107.552 18.3352C108.023 18.0455 108.555 17.8267 109.146 17.679C109.742 17.5256 110.359 17.4148 110.995 17.3466C111.762 17.267 112.384 17.196 112.861 17.1335C113.339 17.0653 113.685 16.9631 113.901 16.8267C114.123 16.6847 114.234 16.4659 114.234 16.1705V16.1193C114.234 15.4773 114.043 14.9801 113.663 14.6278C113.282 14.2756 112.734 14.0994 112.018 14.0994C111.262 14.0994 110.663 14.2642 110.219 14.5938C109.782 14.9233 109.486 15.3125 109.333 15.7614L106.452 15.3523C106.68 14.5568 107.055 13.892 107.577 13.358C108.1 12.8182 108.739 12.4148 109.495 12.1477C110.251 11.875 111.086 11.7386 112.001 11.7386C112.631 11.7386 113.259 11.8125 113.884 11.9602C114.509 12.108 115.08 12.3523 115.597 12.6932C116.114 13.0284 116.529 13.4858 116.842 14.0653C117.16 14.6449 117.319 15.3693 117.319 16.2386V25H114.353V23.2017H114.251C114.063 23.5653 113.799 23.9062 113.458 24.2244C113.123 24.5369 112.699 24.7898 112.188 24.983C111.682 25.1705 111.089 25.2642 110.407 25.2642ZM111.208 22.9972C111.827 22.9972 112.364 22.875 112.819 22.6307C113.273 22.3807 113.623 22.0511 113.867 21.642C114.117 21.233 114.242 20.7869 114.242 20.304V18.7614C114.146 18.8409 113.981 18.9148 113.748 18.983C113.521 19.0511 113.265 19.1108 112.981 19.1619C112.697 19.2131 112.415 19.2585 112.137 19.2983C111.859 19.3381 111.617 19.3722 111.413 19.4006C110.952 19.4631 110.54 19.5653 110.177 19.7074C109.813 19.8494 109.526 20.0483 109.316 20.304C109.106 20.554 109.001 20.8778 109.001 21.2756C109.001 21.8438 109.208 22.2727 109.623 22.5625C110.038 22.8523 110.566 22.9972 111.208 22.9972Z" fill="#004151"/>
<path d="M120.421 25V11.9091H123.37V14.1335H123.523C123.796 13.3835 124.248 12.7983 124.878 12.3778C125.509 11.9517 126.262 11.7386 127.137 11.7386C128.023 11.7386 128.771 11.9545 129.378 12.3864C129.992 12.8125 130.424 13.3949 130.674 14.1335H130.81C131.1 13.4062 131.589 12.8267 132.276 12.3949C132.969 11.9574 133.79 11.7386 134.739 11.7386C135.944 11.7386 136.927 12.1193 137.688 12.8807C138.449 13.642 138.83 14.7528 138.83 16.2131V25H135.736V16.6903C135.736 15.8778 135.521 15.2841 135.089 14.9091C134.657 14.5284 134.128 14.3381 133.503 14.3381C132.759 14.3381 132.177 14.571 131.756 15.0369C131.342 15.4972 131.134 16.0966 131.134 16.8352V25H128.109V16.5625C128.109 15.8864 127.904 15.3466 127.495 14.9432C127.092 14.5398 126.563 14.3381 125.91 14.3381C125.467 14.3381 125.063 14.4517 124.699 14.679C124.336 14.9006 124.046 15.2159 123.83 15.625C123.614 16.0284 123.506 16.5 123.506 17.0398V25H120.421Z" fill="#004151"/>
<path d="M141.96 29.9091V11.9091H144.994V14.0739H145.173C145.332 13.7557 145.557 13.4176 145.847 13.0597C146.136 12.696 146.528 12.3864 147.023 12.1307C147.517 11.8693 148.148 11.7386 148.915 11.7386C149.926 11.7386 150.838 11.9972 151.65 12.5142C152.469 13.0256 153.116 13.7841 153.594 14.7898C154.077 15.7898 154.318 17.017 154.318 18.4716C154.318 19.9091 154.082 21.1307 153.611 22.1364C153.139 23.142 152.497 23.9091 151.685 24.4375C150.872 24.9659 149.952 25.2301 148.923 25.2301C148.173 25.2301 147.551 25.1051 147.057 24.8551C146.562 24.6051 146.165 24.304 145.864 23.9517C145.568 23.5937 145.338 23.2557 145.173 22.9375H145.045V29.9091H141.96ZM144.986 18.4545C144.986 19.3011 145.105 20.0426 145.344 20.679C145.588 21.3153 145.937 21.8125 146.392 22.1705C146.852 22.5227 147.409 22.6989 148.062 22.6989C148.744 22.6989 149.315 22.517 149.775 22.1534C150.236 21.7841 150.582 21.2813 150.815 20.6449C151.054 20.0028 151.173 19.2727 151.173 18.4545C151.173 17.642 151.057 16.9205 150.824 16.2898C150.591 15.6591 150.244 15.1648 149.784 14.8068C149.324 14.4489 148.75 14.2699 148.062 14.2699C147.403 14.2699 146.844 14.4432 146.383 14.7898C145.923 15.1364 145.574 15.6222 145.335 16.2472C145.102 16.8722 144.986 17.608 144.986 18.4545Z" fill="#004151"/>
<path d="M64.2563 17.1676V7.54545H61.1711V25H64.2563V20.5997L65.3788 19.3965L69.387 25H73.0773L67.7039 17.5598L72.779 11.9091H69.1739L64.4694 17.1676H64.2563Z" fill="#004151"/>
<defs>
<clipPath id="clip0_508_3348">
<rect width="40" height="32" fill="white"/>
</clipPath>
</defs>
</svg>
