<svg width="186" height="32" viewBox="0 0 186 32" fill="none" xmlns="http://www.w3.org/2000/svg">
<g clip-path="url(#clip0_1243_8278)">
<path d="M7.24823 8.92834C5.16998 8.10311 4.99877 5.97293 5.9198 4.71396C6.58464 3.80173 7.49817 3.4699 8.6229 3.63147C9.6864 3.78309 10.7611 3.85269 11.8296 3.97697C12.0621 4.00307 12.0383 3.87754 12.0433 3.72841C12.041 3.43347 12.0581 3.1387 12.0946 2.84601C12.1996 2.2246 12.4695 1.69889 13.0681 1.39564C13.1128 1.37891 13.1549 1.3559 13.1931 1.32729C14.3178 0.248524 15.5675 0.495844 16.8347 1.01534C17.1646 1.15205 17.4745 1.34096 17.8095 1.46275C18.3406 1.65539 18.878 1.80577 19.4416 1.53608C19.7815 1.37327 19.8615 1.61189 19.8515 1.87661C19.8202 2.70433 19.4803 3.35556 18.7155 3.72841C18.5056 3.82907 18.5081 3.86387 18.5443 4.10125C18.7705 5.58517 18.5443 6.96842 17.3271 8.00245C16.8584 8.3989 16.2711 8.64374 15.6425 8.57041C15.3713 8.53934 15.3925 8.69469 15.3151 8.80903C15.2101 8.96811 15.3263 9.0315 15.4638 9.11352C16.5098 9.72623 16.9447 10.6733 16.8947 11.8477C16.8622 12.6058 16.7697 13.3627 16.7197 14.1221C16.7097 14.2687 16.5948 14.5185 16.8547 14.5322C17.0596 14.5421 17.3396 14.8156 17.4908 14.4315C17.5633 14.2463 17.7232 14.2389 17.8832 14.2749C18.0034 14.3083 18.1211 14.3498 18.2356 14.3992C18.7467 14.5931 19.1342 14.7223 19.6515 14.183C20.0412 13.8127 20.2943 13.3229 20.3701 12.7923C20.5127 11.9355 20.7165 11.0899 20.98 10.2619C21.1324 9.76476 21.3236 9.29746 21.721 8.88484C21.0187 8.599 20.4463 8.18514 20.1239 7.50656C19.6315 6.4713 19.7303 5.45965 20.4401 4.5847C20.7355 4.19867 21.1347 3.90369 21.5916 3.7339C22.0485 3.56411 22.5444 3.52644 23.022 3.62525C24.008 3.798 25.0103 3.80546 26.0013 3.92601C26.2512 3.95708 26.2887 3.8589 26.2687 3.64389C26.215 3.06723 26.2412 2.49802 26.5474 1.98225C26.7148 1.70137 26.8948 1.43168 27.2635 1.38073C27.3407 1.37082 27.4122 1.33485 27.4659 1.27882C28.1907 0.395176 29.143 0.557985 30.1253 0.618882C31.1076 0.67978 32.1673 0.833889 33.0358 0.1056C33.2608 -0.0833079 33.4233 -0.0062534 33.5357 0.237338C33.9444 1.16572 33.8994 2.15376 32.8659 2.88205C32.6972 3.00633 32.6434 2.99763 32.7409 3.25489C33.0456 4.01841 33.1198 4.85367 32.9546 5.6585C32.845 6.20774 32.6556 6.73818 32.3922 7.23314C31.9311 8.0708 31.1163 8.425 30.1565 8.43122C30.0378 8.43122 29.8878 8.3815 29.8441 8.5555C29.8054 8.69966 29.7104 8.8662 29.8366 8.99421C29.9257 9.11165 30.0304 9.21658 30.1478 9.30616C31.215 9.84554 31.3912 10.8112 31.3762 11.844C31.3662 12.5897 31.27 13.3354 31.2238 14.0724C31.2125 14.2401 31.125 14.4775 31.405 14.521C31.6187 14.5558 31.8811 14.7696 32.0298 14.3905C32.0461 14.35 32.0706 14.3131 32.1017 14.2823C32.1328 14.2515 32.1699 14.2273 32.2107 14.2112C32.2516 14.1952 32.2953 14.1876 32.3392 14.1889C32.3831 14.1902 32.4262 14.2005 32.466 14.219C32.8284 14.3532 33.2033 14.4502 33.5632 14.5832C33.9844 14.7397 34.2131 15.4009 34.0893 15.9154C33.9656 16.43 33.6357 16.7295 33.0958 16.7158C32.4997 16.7009 31.9111 16.7693 31.3188 16.7854C31.0776 16.7929 31.0038 16.8737 30.9963 17.1123C30.9788 17.592 31.0476 18.1301 30.8526 18.5353C30.6027 19.0523 30.8826 19.3593 31.0513 19.7346C31.3188 20.3287 31.5612 20.9389 31.8849 21.5019C32.9034 23.2704 33.0733 25.2303 33.2708 27.1952C33.3558 28.0441 33.4757 28.8892 33.5707 29.738C33.6107 30.0935 33.7119 30.2675 34.1493 30.2178C34.9804 30.1233 35.5515 30.5049 35.7939 31.2779C35.8827 31.5612 36.0289 31.5811 36.2663 31.5799C37.9997 31.5799 39.733 31.5799 41.4663 31.5799C41.5601 31.5799 41.6538 31.5799 41.7463 31.5799C41.8837 31.5799 41.9962 31.6271 42.0025 31.7887C42.0087 31.9502 41.8975 31.9975 41.7588 32C41.6201 32.0024 41.5088 32 41.3839 32L0.491089 32.0074C0.382287 32.0101 0.273417 32.0072 0.164917 31.9987C0.140573 31.9981 0.116637 31.9924 0.0947065 31.9818C0.0727763 31.9713 0.0533566 31.9563 0.0377439 31.9377C0.0221312 31.9191 0.0106846 31.8974 0.00416836 31.8741C-0.00234789 31.8507 -0.00378389 31.8263 -4.37832e-05 31.8024C-4.37832e-05 31.6992 0.0336982 31.611 0.143672 31.596C0.282979 31.5793 0.42326 31.5718 0.563572 31.5737H7.31197C6.90331 30.8131 6.50466 30.0823 6.121 29.354C5.73734 28.6257 5.74609 28.617 6.42343 28.1907C7.4484 27.5388 8.43983 26.8362 9.39397 26.0854C9.74088 25.8194 9.99913 25.4556 10.135 25.0414C10.5849 23.7439 10.7599 22.3868 11.0361 21.0508C11.1061 20.7053 10.9111 20.5959 10.5749 20.6046C9.59392 20.627 8.60416 20.7289 7.63439 20.5139C6.54715 20.2653 5.7161 19.7023 5.41617 18.5639C5.36868 18.3849 5.25246 18.329 5.10874 18.2569C4.39016 17.9027 4.13272 17.4416 4.21145 16.6413C4.27897 16.0708 4.39648 15.5073 4.56262 14.9572C4.61892 14.7618 4.71557 14.5802 4.8464 14.424C4.97722 14.2678 5.13935 14.1404 5.32244 14.05C5.68485 13.8611 5.75984 13.5827 5.81357 13.2347C5.95219 12.2681 6.16102 11.3128 6.43842 10.3762C6.59232 9.83788 6.8695 9.34231 7.24823 8.92834ZM13.7104 8.9358C13.6592 8.88609 13.5855 8.82395 13.5355 8.89354C13.4767 8.98551 13.5955 8.98178 13.6455 9.01037L13.7417 9.09488C13.7929 9.03025 13.7467 8.98303 13.7129 8.9358H13.7104ZM13.0019 8.71582C13.0631 8.76181 13.1268 8.80903 13.1981 8.74068L13.0731 8.64001C12.9814 8.5693 12.8761 8.51813 12.7636 8.48969C12.6512 8.46125 12.534 8.45615 12.4195 8.47472C12.5877 8.60828 12.7905 8.69186 13.0044 8.71582H13.0019ZM10.0776 4.25287L9.96633 4.2392L10.0138 4.3262C10.9773 5.44473 11.0598 6.64653 10.295 7.91918C10.5687 7.97013 10.7786 8.0099 10.9586 7.77253C11.8184 6.64156 11.3822 4.88174 10.0776 4.25287ZM28.3994 14.8367C28.2907 14.8181 28.1788 14.8416 28.087 14.9026C27.0298 15.4991 25.975 16.0994 24.914 16.6897C24.8274 16.7422 24.7549 16.815 24.7029 16.9016C24.6509 16.9882 24.6208 17.0861 24.6153 17.1868C24.5979 17.29 24.5079 17.4056 24.6078 17.4913C24.7328 17.5932 24.8465 17.4913 24.9478 17.4292C25.2589 17.2527 25.5726 17.0688 25.8675 16.8774C26.7861 16.2908 27.6684 15.6582 28.3932 14.8354C28.4055 14.832 28.4172 14.827 28.4282 14.8205C28.4282 14.8205 28.4282 14.8044 28.4282 14.7957L28.3994 14.8367ZM26.4674 13.3205C27.2172 13.0843 27.8483 12.8233 28.1608 11.9397C28.347 11.4152 28.2707 11.0958 28.0495 10.6969C27.8554 10.3583 27.5719 10.079 27.2297 9.88904C26.3424 9.37576 25.7301 9.52987 25.2752 10.4259C24.4354 12.0627 23.5706 13.6871 22.8258 15.3686C22.6846 15.6868 22.777 16.0111 23.0007 16.2833C23.1015 16.4229 23.2444 16.5269 23.4087 16.5803C23.5729 16.6337 23.75 16.6337 23.9143 16.5804C24.2096 16.4911 24.4952 16.3724 24.7666 16.2262C25.7051 15.7203 26.6286 15.1859 27.5696 14.6838C28.252 14.3197 28.2457 14.342 27.9208 13.6647C27.7771 13.3652 27.6284 13.2919 27.3122 13.4311C26.6774 13.7132 26.0263 13.9568 25.3814 14.2165C25.2564 14.2687 25.1065 14.3408 25.0302 14.1482C24.9628 13.9779 25.0677 13.881 25.2115 13.83C25.4239 13.7423 25.6002 13.5854 25.7113 13.3851C26.0475 12.888 26.4199 12.4057 26.7823 11.9223C26.8786 11.798 26.9635 11.5793 27.1772 11.7284C27.4172 11.8974 27.2197 12.0478 27.1185 12.1932C26.8786 12.5354 26.6394 12.878 26.4012 13.221L26.3574 13.3167L26.4674 13.3205ZM21.8148 31.5501C21.3686 30.7435 20.94 29.953 20.4988 29.175C20.2751 28.7848 20.3501 28.5375 20.74 28.3051C21.7798 27.6762 22.7533 26.9516 23.7281 26.2271C24.1711 25.9063 24.4942 25.4481 24.6466 24.9246C25.0215 23.7228 25.2377 22.4875 25.4864 21.2571C25.6114 20.6357 25.5776 20.6058 24.929 20.6058C23.9493 20.6058 22.9607 20.7177 21.9985 20.4368C20.9987 20.1447 20.2101 19.624 19.9677 18.5378C19.9227 18.3377 19.774 18.3228 19.6415 18.2557C19.1416 18.0009 18.7817 17.6268 18.728 17.0501C18.703 16.8016 18.603 16.7469 18.3731 16.7581C17.8582 16.7842 17.3433 16.8003 16.8285 16.7991C16.5785 16.7991 16.486 16.8848 16.4723 17.1446C16.4423 17.6703 16.4298 18.2097 16.2886 18.7093C16.2503 18.8107 16.2334 18.9189 16.239 19.0271C16.2446 19.1353 16.2725 19.2412 16.3211 19.3382C16.7772 20.2889 17.2321 21.2397 17.6695 22.1966C17.9982 22.9162 18.3168 23.6395 18.4081 24.4337C18.608 26.206 18.8267 27.9757 19.0204 29.748C19.0567 30.0873 19.1379 30.219 19.5278 30.1867C20.3764 30.1183 20.9937 30.4887 21.2174 31.2095C21.3249 31.5575 21.4948 31.611 21.8148 31.5501ZM27.7271 18.9168C27.0398 18.9168 26.3524 18.9168 25.6663 18.9168C25.1415 18.9168 25.1402 18.933 25.3014 19.4475C25.5101 20.1112 25.9038 20.6742 26.3362 21.1962C27.12 22.1136 27.9709 22.9722 28.8818 23.7651C29.5517 24.3666 30.0628 25.0675 30.2678 25.9748C30.5502 27.23 30.8926 28.4728 31.18 29.7244C31.2325 29.9506 31.3113 30.0413 31.5437 30.0351C31.9794 30.0226 32.4164 30.0226 32.8546 30.0351C33.1333 30.0438 33.1921 29.9406 33.1571 29.6734C32.9971 28.4443 32.8746 27.2114 32.7059 25.9847C32.581 25.0986 32.596 24.1889 32.2323 23.3425C31.6299 21.9456 31.0026 20.5611 30.3365 19.1927C30.3054 19.1 30.243 19.0208 30.1598 18.9687C30.0767 18.9165 29.9779 18.8947 29.8803 18.9069C29.1618 18.9243 28.4444 18.9168 27.7271 18.9168ZM10.5849 18.928C10.7401 19.4548 10.9699 19.957 11.2673 20.4194C12.0521 21.6411 13.1218 22.6192 14.1653 23.601C14.9352 24.3243 15.6012 25.0924 15.8162 26.1786C15.9961 27.0896 16.2461 27.9869 16.4648 28.8917C16.5523 29.2509 16.4798 29.7231 16.746 29.9443C17.0334 30.183 17.4958 30.0102 17.8832 30.0152C18.633 30.0264 18.6393 29.9978 18.5455 29.2695C18.4118 28.2255 18.3243 27.1766 18.1831 26.1339C18.0682 25.2776 18.1081 24.3939 17.7932 23.5699C17.2146 22.0624 16.516 20.6058 15.7937 19.1617C15.7699 19.0898 15.7227 19.0279 15.6596 18.9858C15.5964 18.9437 15.5209 18.9238 15.445 18.9293C13.8367 18.9293 12.2295 18.928 10.5849 18.928ZM26.2275 8.31936C25.995 8.31936 25.7638 8.32682 25.5326 8.31936C24.8565 8.29078 24.2017 8.29824 23.6193 8.74068C23.3899 8.91053 23.1057 8.99059 22.8208 8.96563C22.4009 8.9271 22.1147 9.13092 21.8548 9.42795C21.5795 9.76627 21.3851 10.1623 21.2861 10.5863C20.6163 12.9762 20.4113 15.4258 20.3226 17.8903C20.2901 18.8348 20.7563 19.5258 21.6286 19.89C22.6708 20.3262 23.7693 20.238 24.859 20.2019C25.0502 20.1957 25.1202 20.1124 25.039 19.8962C24.8503 19.3916 24.6328 18.8907 24.6403 18.3327C24.6403 18.2631 24.5991 18.1364 24.5666 18.1326C23.978 18.0655 24.153 17.6355 24.2042 17.3186C24.2554 17.0017 24.1667 16.9706 23.9055 16.9955C23.3494 17.0489 22.8908 16.8712 22.5846 16.3865C22.5572 16.3404 22.5198 16.301 22.475 16.2713C22.4302 16.2416 22.3792 16.2223 22.3259 16.215C21.2811 16.0236 21.0949 16.1702 21.0849 17.2154C21.0849 17.2925 21.0849 17.3708 21.0849 17.4478C21.0912 18.0046 21.3349 18.2619 21.911 18.278C22.4409 18.293 22.972 18.278 23.5019 18.2892C23.6768 18.2892 23.9505 18.2308 23.9455 18.4918C23.9405 18.7528 23.6656 18.7304 23.4681 18.7255C22.9232 18.713 22.3784 18.6894 21.8335 18.672C21.1287 18.6509 20.7213 18.2743 20.7025 17.5808C20.6875 16.9917 20.7025 16.4014 20.7188 15.8135C20.7338 15.35 20.9912 15.0678 21.4436 14.9746C21.6268 14.9358 21.8154 14.9291 22.001 14.9548C22.4096 15.0219 22.6058 14.8479 22.7795 14.4875C23.4694 13.0632 24.168 11.6402 24.9165 10.2457C25.2714 9.56964 25.4689 8.76926 26.2275 8.31936ZM11.7372 8.43495C10.8886 8.47596 10.0138 8.15283 9.23026 8.76429C8.96657 8.97184 8.59291 9.01285 8.25174 9.04517C7.71187 9.10482 7.06827 9.56964 6.95205 10.068C6.77084 10.8572 6.49841 11.619 6.35719 12.4281C6.06865 14.216 5.88505 16.019 5.80732 17.8281C5.74359 18.9877 6.21223 19.5905 7.31946 19.9869C8.31923 20.3448 9.35273 20.228 10.3775 20.2355C10.6637 20.2355 10.5537 20.0615 10.5025 19.9186C10.3175 19.4115 10.0651 18.9243 10.1188 18.3551C10.1275 18.2681 10.13 18.1351 10.0151 18.1264C9.32649 18.0705 9.56893 17.6604 9.69265 17.3024C9.76888 17.08 9.75139 17.0091 9.4727 17.034C8.87659 17.0874 8.36172 16.8985 8.04429 16.3579C8.00546 16.2829 7.94392 16.2219 7.86835 16.1835C7.79278 16.1452 7.70701 16.1314 7.62314 16.1441C6.57089 16.1851 6.58964 15.8956 6.57089 17.1496C6.57089 17.2577 6.57089 17.3671 6.57089 17.4752C6.58464 18.0394 6.83958 18.2942 7.40069 18.3017C7.96181 18.3091 8.55542 18.3017 9.13153 18.3203C9.2565 18.3203 9.45271 18.3315 9.45396 18.5191C9.45396 18.7292 9.27275 18.7391 9.11029 18.7379C8.53293 18.7379 7.95681 18.7279 7.37945 18.7255C7.22413 18.7305 7.0694 18.7041 6.92466 18.6479C6.77992 18.5916 6.6482 18.5067 6.5375 18.3982C6.4268 18.2898 6.33944 18.1601 6.28073 18.017C6.22202 17.8739 6.19319 17.7204 6.19598 17.5659C6.18848 17.1471 6.19598 16.7282 6.19598 16.3094C6.19598 15.1996 6.57089 14.8615 7.68313 14.9784C7.89933 15.0007 8.03679 14.9635 8.13927 14.7634C8.67914 13.6983 9.18777 12.6145 9.78388 11.5805C10.3962 10.5179 10.6287 9.21543 11.7372 8.43495ZM23.087 30.2277C23.3044 30.6005 23.7118 30.8168 23.7118 31.2592C23.7118 31.5501 23.8443 31.5799 24.0867 31.5786C25.1165 31.5712 26.145 31.5786 27.1735 31.5786H31.1425C31.0951 31.3574 31.0501 31.1797 31.0176 30.9982C30.6839 29.185 30.1915 27.4102 29.7129 25.6318C29.5692 25.0999 29.243 24.6872 28.7894 24.3293C28.6494 24.6326 28.5119 24.8935 28.4044 25.1657C27.7733 26.7814 26.7798 28.0627 25.2015 28.8842C24.4616 29.2683 23.788 29.7766 23.087 30.2277ZM16.5748 31.5749C16.2286 29.6983 15.7812 27.8974 15.3501 26.0929C15.198 25.4119 14.8236 24.8001 14.2853 24.3529C13.9179 25.0824 13.5542 25.7846 13.2118 26.4955C12.8715 27.2156 12.3296 27.8228 11.6509 28.2442C10.7099 28.8407 9.78388 29.4609 8.84285 30.0587C8.60541 30.2103 8.53043 30.3172 8.79536 30.5198C8.91131 30.6011 9.0069 30.7078 9.07473 30.8317C9.14256 30.9556 9.18081 31.0934 9.18652 31.2344C9.18652 31.5376 9.32399 31.5774 9.58767 31.5749C10.8511 31.565 12.1158 31.5749 13.3793 31.5749H16.5748ZM11.9159 13.2881L11.9871 13.3503C12.362 13.2098 12.7369 13.0744 13.1118 12.9228C13.2128 12.8828 13.2979 12.8113 13.3543 12.7189C13.5455 12.356 13.5592 11.9024 13.9354 11.6327C13.9616 11.6128 13.9479 11.5084 13.9354 11.4587C13.6854 10.7317 13.288 10.1165 12.5607 9.78216C11.8334 9.44784 11.2848 9.62308 10.9061 10.3066C10.5537 10.9442 10.2288 11.5979 9.89385 12.2454C9.40272 13.1949 8.90784 14.1432 8.42545 15.1039C8.21175 15.4979 8.14552 15.908 8.49793 16.2808C8.87284 16.6761 9.31149 16.691 9.78513 16.4971C9.95819 16.4266 10.1275 16.3473 10.2925 16.2597C11.226 15.7626 12.1558 15.2568 13.0931 14.7683C13.7942 14.3955 13.7692 14.4203 13.4368 13.6759C13.283 13.3329 13.1418 13.3254 12.8456 13.4634C12.2683 13.7318 11.6772 13.9704 11.0961 14.2091C10.9324 14.2774 10.7212 14.4228 10.6212 14.1606C10.5337 13.9406 10.7461 13.876 10.8999 13.8114C11.0335 13.7686 11.1509 13.6862 11.236 13.5752C11.6109 13.0247 11.9971 12.4791 12.3808 11.9322C12.4657 11.8079 12.4845 11.5594 12.7369 11.7259C12.9631 11.8713 12.8232 12.0217 12.7294 12.1559C12.4582 12.5337 12.1858 12.9103 11.9159 13.2881ZM27.8958 8.89727C29.1743 9.62183 29.6554 10.7006 29.7279 12.0043C29.7275 12.0962 29.7512 12.1865 29.7966 12.2665C30.3165 13.1365 30.1915 13.7927 29.403 14.3793C29.328 14.4349 29.2607 14.5001 29.203 14.5732C28.4907 15.519 27.5709 16.2361 26.5999 16.8935C26.1612 17.1893 25.7101 17.469 25.2464 17.7225C24.9665 17.8754 25.019 18.1078 25.039 18.3265C25.064 18.6061 25.3039 18.4794 25.4451 18.4806C26.976 18.4868 28.5057 18.4669 30.0353 18.4906C30.4102 18.4906 30.5064 18.3663 30.5277 18.0282C30.6464 16.2324 30.7839 14.4365 30.9088 12.6406C30.9413 12.1783 31.0226 11.706 30.9638 11.2549C30.7901 9.92632 29.4417 8.87614 27.8958 8.89727ZM25.9163 21.3465C25.6963 22.3222 25.4776 23.2108 25.3014 24.0994C25.0715 25.2527 24.6303 26.2507 23.5519 26.8758C23.1232 27.1244 22.7558 27.4749 22.3421 27.7458C22.0922 27.9123 22.0697 28.0888 22.2047 28.3274C22.4284 28.7164 22.6596 29.1017 22.862 29.5019C22.9632 29.7032 23.042 29.7505 23.2444 29.6162C24.1942 28.9948 25.1577 28.3859 26.105 27.752C26.4412 27.5296 26.7698 27.2897 26.9798 26.9293C27.498 26.0627 27.9573 25.1625 28.3545 24.2349C28.4307 24.0559 28.4294 23.9229 28.2782 23.78C27.4784 23.0306 26.7098 22.2463 25.9163 21.3465ZM8.58416 29.7032L8.76912 29.5864C9.73264 28.965 10.6999 28.3436 11.6559 27.6998C11.962 27.5132 12.2276 27.2677 12.437 26.9777C12.9906 26.1475 13.3705 25.2291 13.8242 24.3479C13.9579 24.0894 13.8679 23.8856 13.6655 23.688C12.9869 23.0268 12.2908 22.3768 11.6772 21.656C11.491 21.4398 11.3772 21.4074 11.3148 21.7443C11.1773 22.4725 11.0173 23.1971 10.8736 23.9241C10.6237 25.1781 10.1788 26.2942 8.95907 26.9529C8.55292 27.1716 8.20925 27.5072 7.82309 27.7644C7.58815 27.9198 7.57315 28.0689 7.70562 28.3001C7.94182 28.7003 8.15427 29.1141 8.37921 29.5218C8.42295 29.6013 8.44795 29.7032 8.58416 29.7032ZM13.8017 9.16572C14.8439 9.97355 15.2538 10.9728 15.2751 12.1485C15.2876 12.2554 15.331 12.3564 15.4 12.4393C15.8212 13.1017 15.6587 13.8772 15.0089 14.3408C14.9213 14.4041 14.8416 14.4775 14.7714 14.5595C14.2678 15.1632 13.7015 15.7123 13.0818 16.1976C12.317 16.778 11.546 17.3621 10.6624 17.7722C10.405 17.8903 10.395 18.0866 10.4187 18.3079C10.4475 18.5788 10.6687 18.493 10.8174 18.493C12.4083 18.493 13.9991 18.4831 15.59 18.493C15.9087 18.493 16.0174 18.4036 16.0311 18.0804C16.0786 16.9097 16.1099 15.7352 16.2461 14.572C16.3023 14.0885 16.2936 13.5988 16.3786 13.1141C16.487 12.5555 16.5264 11.9858 16.496 11.4177C16.3986 10.0941 15.2901 9.15578 13.8017 9.16572ZM30.6039 3.28721C30.3392 3.30318 30.0736 3.3011 29.8091 3.28099C29.4155 3.22507 29.3242 3.40527 29.3267 3.74705C29.3267 4.11989 29.418 4.49274 29.273 4.85315C29.1968 5.04455 29.1318 5.24215 28.8881 5.27447C28.6444 5.30678 28.5744 5.11042 28.5132 4.93642C28.4069 4.63317 28.1633 4.69656 27.9321 4.68786C27.6684 4.68786 27.7221 4.88795 27.6646 5.03212C27.4672 5.52924 27.8046 5.75171 28.147 5.95056C28.272 6.02513 28.337 6.09597 28.327 6.23019C28.3132 6.39051 28.177 6.3756 28.077 6.36069C27.8646 6.32962 27.8108 6.47875 27.7608 6.61919C27.6034 7.05293 27.6246 7.5339 27.4034 7.95149C27.3222 8.10684 27.4409 8.15283 27.5397 8.17768C28.057 8.30942 28.5394 8.54183 29.0255 8.73695C29.1605 8.79039 29.323 8.89354 29.4005 8.64871C29.4604 8.4511 29.4767 8.29327 29.2118 8.23112C29.0555 8.19384 28.8368 8.14413 28.9243 7.90426C29.0318 7.6122 29.2367 7.8036 29.388 7.86076C30.1615 8.15283 30.8714 8.03973 31.5412 7.5687C31.7849 7.3972 31.7287 7.28161 31.4975 7.19586C31.1645 7.07513 30.8566 6.89486 30.5889 6.66393C30.5629 6.64588 30.5414 6.62215 30.5259 6.59457C30.5105 6.56698 30.5016 6.53627 30.4999 6.50475C30.4983 6.47324 30.5038 6.44175 30.5162 6.4127C30.5286 6.38364 30.5475 6.35778 30.5714 6.33707C30.6689 6.23392 30.7614 6.26748 30.8551 6.35074C30.9334 6.4246 31.0169 6.49272 31.1051 6.55457C31.9211 7.09022 32.2623 6.96594 32.5035 6.0475C32.531 5.9431 32.556 5.8387 32.5785 5.73431C32.6234 5.53297 32.6784 5.33412 32.3548 5.31424C32.2385 5.30678 32.176 5.18996 32.1623 5.07686C32.1576 5.05363 32.1578 5.0297 32.1627 5.00652C32.1675 4.98334 32.1771 4.96139 32.1908 4.94199C32.2044 4.92259 32.2219 4.90615 32.2422 4.89366C32.2624 4.88117 32.285 4.87288 32.3085 4.86931C32.7709 4.86931 32.6172 4.54618 32.5847 4.32247C32.541 4.01674 32.4522 3.71722 32.381 3.41646C32.3448 3.26359 32.286 3.1679 32.0898 3.22631C31.6049 3.35556 31.1026 3.32822 30.6039 3.28721ZM17.3133 7.41087C16.8747 7.34464 16.4707 7.13521 16.1649 6.81556C16.0824 6.72856 15.9574 6.64778 16.1074 6.51355C16.1282 6.49022 16.1538 6.47155 16.1825 6.45876C16.2111 6.44597 16.2422 6.43936 16.2736 6.43936C16.305 6.43936 16.336 6.44597 16.3647 6.45876C16.3933 6.47155 16.4189 6.49022 16.4398 6.51355C16.5085 6.57569 16.556 6.66021 16.6272 6.71862C16.9018 6.96058 17.2606 7.08634 17.627 7.06909C17.8407 7.04796 17.9094 6.64281 18.0019 6.38927C18.0628 6.23264 18.1154 6.07292 18.1594 5.91079C18.1906 5.78651 18.2631 5.62743 18.0219 5.6063C17.842 5.59138 17.8007 5.45965 17.8082 5.30429C17.8055 5.2691 17.8109 5.23376 17.8239 5.20092C17.8368 5.16808 17.8572 5.13859 17.8833 5.11467C17.9093 5.09075 17.9406 5.07302 17.9745 5.06281C18.0085 5.05261 18.0444 5.05018 18.0794 5.05573C18.2669 5.05573 18.2681 4.95631 18.2369 4.80717C18.2077 4.65624 18.1897 4.50337 18.1831 4.34981C18.1719 4.12735 18.0844 4.00804 17.8382 4.0242C17.0372 4.07391 16.2786 3.85144 15.5275 3.62774C15.2601 3.54944 15.2326 3.5917 15.1826 3.83777C15.1215 4.22083 15.0351 4.59946 14.9239 4.97122C14.8564 5.16386 14.8152 5.32294 14.584 5.34406C14.3528 5.36519 14.2828 5.22724 14.2328 5.04455C14.1828 4.86185 14.0591 4.71271 13.8292 4.74254C13.7275 4.75185 13.6313 4.79294 13.5546 4.85991C13.4778 4.92689 13.4243 5.01632 13.4018 5.11539C13.2905 5.52427 13.4343 5.81509 13.8392 5.96423C13.9491 6.00524 14.0466 6.05744 14.0291 6.19042C14.0241 6.23733 14.0012 6.28055 13.9652 6.31127C13.9292 6.34198 13.8828 6.35788 13.8354 6.35572C13.443 6.36442 13.3705 6.64902 13.3018 6.94854C13.2445 7.25294 13.1651 7.55282 13.0643 7.84585C12.9581 8.12424 13.0519 8.22615 13.3068 8.31688C13.8292 8.50454 14.3403 8.72328 14.8552 8.92834C15.0026 8.50703 15.0001 8.51076 14.6777 8.29699C14.5527 8.21745 14.369 8.14413 14.4878 7.94403C14.6065 7.74394 14.7589 7.92042 14.8764 7.97013C15.7687 8.34795 16.696 8.14537 17.3133 7.41087ZM27.2522 6.50983C27.6409 6.32713 27.6746 6.11461 27.4497 5.80018C27.3078 5.60458 27.2423 5.36439 27.2653 5.12432C27.2883 4.88425 27.3982 4.66067 27.5746 4.49522C27.8933 4.19322 28.222 4.21062 28.7169 4.56606C28.8631 4.67046 28.9493 4.64933 28.9556 4.46664C28.9681 4.1725 28.9718 3.87796 28.9668 3.583C28.9556 2.91685 28.9668 2.90566 29.6342 2.90566C30.459 2.90566 31.2863 2.99639 32.1048 2.81121C33.0458 2.59744 33.6469 1.60568 33.3545 0.743164C33.287 0.543071 33.2295 0.44116 33.0021 0.596512C32.4685 0.958171 31.8586 1.05014 31.2263 1.0489C30.4765 1.0489 29.7379 0.897273 28.9881 0.960657C28.5307 0.999184 28.0858 1.06505 27.8221 1.51371C27.7517 1.61672 27.6444 1.68916 27.5222 1.71629C26.9935 1.8878 26.7236 2.25443 26.6974 2.81369C26.6429 4.06969 26.8313 5.32441 27.2522 6.50983ZM14.6615 4.72266C14.7177 4.29886 14.7714 3.97697 14.8002 3.66129C14.8502 3.09954 14.9889 3.00136 15.55 3.1766C16.0708 3.33721 16.603 3.45852 17.1421 3.5395C18.1631 3.69485 19.0742 3.22755 19.3254 2.43588C19.4041 2.18731 19.3991 2.03942 19.0754 2.0767C18.2581 2.17364 17.5458 1.87413 16.8484 1.50501C15.62 0.85626 14.444 0.792877 13.288 1.72002C12.7882 2.12269 12.5107 2.58999 12.4595 3.20269C12.3745 4.22429 12.6307 5.20114 12.8594 6.18545C12.8781 6.26623 12.8594 6.4452 13.0419 6.36939C13.0684 6.36149 13.0931 6.34836 13.1144 6.33078C13.1357 6.31319 13.1532 6.29152 13.166 6.26704C13.1787 6.24256 13.1863 6.21579 13.1884 6.18832C13.1905 6.16085 13.187 6.13325 13.1781 6.10715C13.1481 6.01891 13.0993 5.93813 13.0668 5.85113C12.8357 5.25334 12.9419 4.75994 13.4105 4.44178C13.8629 4.13481 14.2466 4.33241 14.6615 4.72266ZM8.07304 8.60397C9.2915 8.62634 10.3725 7.58113 10.4012 6.34577C10.4065 6.04645 10.3524 5.74903 10.2421 5.47049C10.1317 5.19195 9.96732 4.93775 9.75821 4.7224C9.5491 4.50705 9.29938 4.33477 9.02332 4.2154C8.74725 4.09603 8.45025 4.0319 8.14927 4.02668C7.84828 4.02146 7.54921 4.07524 7.26913 4.18496C6.98905 4.29469 6.73344 4.4582 6.5169 4.66616C6.30036 4.87412 6.12712 5.12246 6.00709 5.397C5.88706 5.67154 5.82257 5.96691 5.81732 6.26623C5.80468 6.56863 5.85367 6.87045 5.96134 7.15354C6.06902 7.43662 6.23315 7.69513 6.44386 7.91351C6.65458 8.13189 6.90753 8.30563 7.18751 8.42429C7.46748 8.54294 7.7687 8.60406 8.07304 8.60397ZM20.2539 6.4104C20.1689 7.48046 21.4711 8.67108 22.5708 8.57538C23.8205 8.46726 24.8028 7.50159 24.7966 6.21404C24.7966 4.99235 23.7106 3.9894 22.4771 4.00928C21.2174 4.03165 20.2226 5.10544 20.2539 6.4104ZM18.8867 31.524C19.4303 31.524 19.974 31.524 20.5176 31.524C20.8675 31.524 20.8775 31.3549 20.7288 31.1138C20.5812 30.9053 20.37 30.7496 20.1264 30.6699C19.8828 30.5902 19.6199 30.5907 19.3766 30.6714C19.2004 30.7422 19.0017 30.864 18.8767 30.6714C18.723 30.4377 18.5243 30.4601 18.3081 30.4626C17.9657 30.4626 17.622 30.4514 17.2833 30.485C17.1309 30.4999 16.801 30.3209 16.8559 30.6714C16.9047 30.9821 16.7047 31.4941 17.3058 31.5165C17.8282 31.5376 18.3581 31.5227 18.8867 31.524ZM33.457 31.524H34.2506C34.5142 31.524 34.7792 31.5153 35.0441 31.524C35.344 31.5327 35.4028 31.3997 35.2791 31.1511C35.0704 30.7273 34.3893 30.4701 33.9519 30.6677C33.7594 30.7547 33.537 30.8727 33.4133 30.6677C33.272 30.4315 33.0883 30.4688 32.8959 30.4676C32.5535 30.4676 32.2098 30.4576 31.8686 30.4837C31.6899 30.4962 31.3975 30.3396 31.395 30.7323C31.395 31.2853 31.535 31.5227 31.9161 31.5289C32.4297 31.5264 32.9434 31.5215 33.457 31.5215V31.524ZM22.7808 31.524C22.9307 31.4892 23.1557 31.6221 23.2344 31.4158C23.3132 31.2095 23.2257 31.0231 23.062 30.8765C22.9954 30.8116 22.9249 30.751 22.8508 30.695C22.6358 30.5521 22.4934 30.3905 22.6421 30.1196C22.6587 30.0844 22.6656 30.0454 22.6618 30.0067C22.6581 29.968 22.6439 29.931 22.6208 29.8996C22.3546 29.4298 22.1034 28.9513 21.821 28.4902C21.6486 28.2094 21.4136 28.3337 21.2237 28.4828C21.0337 28.6319 20.6788 28.668 20.9087 29.057C21.3161 29.7517 21.6998 30.4589 22.0972 31.1586C22.2447 31.4121 22.4446 31.5923 22.7808 31.5177V31.524ZM8.19551 31.524C8.73163 31.5339 8.94533 31.2965 8.65415 31.0417C8.25549 30.6863 8.10428 30.3085 8.0118 29.7989C7.93432 29.3776 7.63689 28.9911 7.3982 28.6083C7.31696 28.4741 7.26323 28.1199 6.99204 28.3511C6.7696 28.5412 6.19223 28.5474 6.48091 29.0967C6.84208 29.7815 7.22074 30.4564 7.57315 31.1449C7.71937 31.4245 7.90932 31.5799 8.19551 31.5215V31.524ZM11.0473 4.33117C11.0473 4.361 11.0473 4.39953 11.0636 4.41817C11.9821 5.42733 12.0496 6.54711 11.4897 7.73897C11.3735 7.98753 11.4472 8.04843 11.6834 8.03352C11.8084 8.02482 11.9334 8.00866 12.0583 7.99499C12.2858 7.97138 12.5857 8.12797 12.6832 7.76755C12.7657 7.46182 13.0843 7.14615 12.6432 6.84787C12.552 6.78573 12.5382 6.59931 12.5095 6.4626C12.4232 6.06863 12.3483 5.67217 12.2683 5.27695C12.0658 4.32993 12.0658 4.32993 11.0473 4.33117ZM25.4464 4.31377C26.0713 5.25334 26.085 5.2521 26.22 6.20658C26.2738 6.68805 26.187 7.17475 25.97 7.60847C25.93 7.69547 25.7738 7.88189 25.97 7.89308C26.3287 7.91421 26.7698 8.08323 27.0335 7.78122C27.2497 7.53266 27.4622 7.14987 27.0173 6.83171C26.9335 6.77082 26.9123 6.61174 26.8798 6.49243C26.7223 5.90955 26.5461 5.32915 26.4262 4.73881C26.3612 4.41941 26.2362 4.274 25.9063 4.31129C25.7531 4.32011 25.5996 4.32094 25.4464 4.31377ZM13.8717 14.8243C13.8035 14.8473 13.7367 14.8743 13.6717 14.905C12.6894 15.4357 11.7209 15.995 10.7224 16.4921C10.2313 16.7407 10.0638 17.0775 10.0976 17.6206C11.521 16.8699 12.8494 16.0646 13.8717 14.8243ZM20.1202 14.3383C20.0339 14.3736 19.9504 14.4151 19.8702 14.4626C19.2979 14.8926 18.9717 16.5953 19.1641 17.1719C19.2379 17.4116 19.3987 17.6154 19.6153 17.7436C19.7553 17.8269 19.844 17.8257 19.8652 17.6318C19.9502 16.5555 20.0364 15.4829 20.1264 14.3383H20.1202ZM5.62362 14.393C5.46951 14.4417 5.33 14.5277 5.21765 14.6433C5.1053 14.759 5.02364 14.9006 4.98002 15.0554C4.79533 15.5964 4.66964 16.1556 4.60511 16.7233C4.55137 17.1595 4.73758 17.505 5.085 17.7672C5.24871 17.8915 5.33494 17.8915 5.36868 17.643C5.4799 16.7432 5.41367 15.8272 5.61862 14.9349C5.63891 14.7549 5.64059 14.5733 5.62362 14.393ZM24.6866 7.86325C25.1765 8.04967 25.4089 7.83839 25.5751 7.43572C25.7382 7.07469 25.8144 6.68081 25.7977 6.28537C25.781 5.88993 25.6718 5.50381 25.4789 5.15764C25.2464 4.73136 24.924 4.36597 24.3916 4.24542C25.4289 5.37389 25.5001 6.56824 24.6866 7.86325ZM28.5032 12.2218C28.3445 12.7102 27.9296 13.1079 28.3532 13.6734C28.7056 14.142 29.0181 14.2513 29.4567 13.8437C29.6879 13.6274 29.6529 13.3304 29.6679 13.0644C29.6879 12.7363 29.5754 12.4865 29.1505 12.5611C28.8681 12.612 28.6181 12.5623 28.5032 12.2218ZM13.9966 12.0776C13.8404 12.7251 13.4468 13.2098 13.9204 13.7393C14.0454 13.8847 14.0079 14.2364 14.319 14.1556C14.6302 14.0748 15.0214 14.0251 15.1151 13.6088C15.1526 13.4274 15.1751 13.2433 15.1826 13.0582C15.2026 12.7289 15.0576 12.5437 14.7077 12.6058C14.3578 12.668 14.1091 12.5872 13.9966 12.0776ZM11.5322 9.19679C13.2606 9.42174 14.0316 10.1078 14.3615 11.5942C14.4065 11.7992 14.2691 12.2454 14.6715 12.1858C15.1351 12.1162 14.8227 11.716 14.7964 11.501C14.6215 10.15 13.358 8.96438 12.1221 8.94823C11.9159 8.94823 11.6859 8.90722 11.5322 9.19679ZM25.9475 9.19679C27.5397 9.32107 28.4069 9.97355 28.7644 11.2673C28.8168 11.4612 28.8631 11.6563 28.9131 11.8514C28.9531 12.0068 28.9993 12.1733 29.213 12.1112C29.4267 12.0491 29.3292 11.8788 29.3155 11.757C29.2552 11.25 29.0942 10.7599 28.8418 10.3153C28.342 9.41677 27.4572 9.14459 26.5674 8.87987C26.3349 8.81276 26.125 8.93207 25.9475 9.19679ZM32.196 15.0616L31.36 14.9374C31.235 14.9187 31.17 14.9299 31.1288 15.0803C30.8026 16.2597 31.0126 16.512 32.1835 16.3231C32.2048 16.3115 32.2246 16.2973 32.2423 16.2808C32.124 16.1013 32.0569 15.8932 32.0481 15.6787C32.0393 15.4642 32.0891 15.2514 32.1923 15.0629L32.196 15.0616ZM17.7657 16.3629C17.587 16.0087 17.4583 15.6507 17.5983 15.258C17.6558 15.0989 17.572 15.0355 17.4146 15.0281C17.2599 15.032 17.1053 15.0161 16.9547 14.9809C16.686 14.8963 16.646 15.0331 16.616 15.2481C16.4523 16.4188 16.5373 16.5058 17.7657 16.3629ZM33.6932 15.6594C33.7032 15.2257 33.467 14.9262 33.1008 14.9137C32.8084 14.9001 32.4635 15.3239 32.4647 15.6955C32.4647 16.0136 32.7847 16.3355 33.1033 16.3169C33.4995 16.2808 33.6719 16.0323 33.6932 15.6594ZM18.9379 15.294C19.0154 15.1138 18.8942 15.0306 18.733 14.9746C18.5718 14.9187 18.3931 14.8404 18.2656 15.0181C18.0969 15.2518 17.8695 15.4767 17.9707 15.8061C18.0594 16.0919 18.2369 16.3218 18.5605 16.3119C18.8842 16.302 18.7655 15.99 18.8317 15.8148C18.8804 15.6437 18.9159 15.4692 18.9379 15.2928V15.294ZM7.27198 15.8024C7.46193 15.6855 7.86059 15.9726 7.85434 15.5712C7.85434 15.2381 7.48942 15.4196 7.28947 15.396C7.06078 15.3711 6.71336 15.396 6.72586 15.6445C6.73835 15.9254 7.08702 15.7017 7.27198 15.8011V15.8024ZM21.6785 15.7676C21.768 15.7733 21.8578 15.7733 21.9472 15.7676C22.0859 15.7477 22.2971 15.8347 22.3084 15.5948C22.3221 15.3164 22.0872 15.4059 21.9335 15.3848C21.8716 15.3779 21.8092 15.3779 21.7473 15.3848C21.5348 15.3997 21.2149 15.3636 21.2199 15.6259C21.2274 15.9192 21.5511 15.6905 21.6785 15.7663V15.7676ZM13.393 8.82395C13.383 8.814 13.3743 8.79536 13.363 8.79536C13.3518 8.79536 13.3405 8.81028 13.328 8.81898C13.3393 8.82892 13.3493 8.84632 13.3593 8.84756C13.3693 8.8488 13.383 8.83513 13.393 8.82395Z" fill="#141617"/>
<path d="M27.7271 18.9169C28.4444 18.9169 29.1617 18.9243 29.8803 18.9169C29.9778 18.9047 30.0766 18.9265 30.1598 18.9786C30.243 19.0308 30.3054 19.1099 30.3364 19.2027C31.0025 20.5698 31.6299 21.9556 32.2322 23.3525C32.5959 24.1988 32.5834 25.1086 32.7059 25.9947C32.8746 27.2214 32.9971 28.4542 33.157 29.6834C33.192 29.9506 33.1333 30.0562 32.8546 30.045C32.4172 30.031 31.9802 30.031 31.5436 30.045C31.3112 30.0513 31.2325 29.9605 31.18 29.7343C30.8863 28.4828 30.5551 27.24 30.2677 25.9848C30.0628 25.0775 29.5516 24.3766 28.8818 23.775C27.9708 22.9822 27.1199 22.1236 26.3361 21.2061C25.9037 20.6842 25.5101 20.1212 25.3014 19.4575C25.1402 18.943 25.1414 18.9293 25.6663 18.9268C26.3536 18.9268 27.041 18.9268 27.7271 18.9268V18.9169Z" fill="#425874"/>
<path d="M10.585 18.928C12.2296 18.928 13.8342 18.928 15.4438 18.928C15.5197 18.9226 15.5952 18.9425 15.6583 18.9846C15.7215 19.0267 15.7687 19.0886 15.7925 19.1604C16.5161 20.6046 17.2146 22.0611 17.792 23.5687C18.1069 24.3914 18.0669 25.2763 18.1819 26.1326C18.3231 27.1753 18.4106 28.2243 18.5443 29.2682C18.638 30.0002 18.6355 30.0288 17.882 30.0139C17.4958 30.0139 17.0322 30.1817 16.7447 29.9431C16.4786 29.7219 16.551 29.2496 16.4636 28.8904C16.2449 27.9856 15.9949 27.0883 15.815 26.1773C15.6 25.0936 14.9402 24.3231 14.1641 23.5997C13.1219 22.6192 12.0521 21.6411 11.2673 20.4157C10.9702 19.9544 10.7405 19.4535 10.585 18.928Z" fill="#425874"/>
<path d="M26.2274 8.31939C25.4689 8.76929 25.2714 9.57463 24.914 10.2433C24.1642 11.6377 23.4668 13.0607 22.777 14.485C22.6033 14.8454 22.4021 15.0194 21.9984 14.9523C21.8129 14.9266 21.6243 14.9333 21.4411 14.9722C20.9887 15.0617 20.7312 15.345 20.7162 15.8111C20.6975 16.3989 20.685 16.9893 20.7 17.5784C20.7187 18.2719 21.1261 18.6484 21.831 18.6696C22.3758 18.687 22.9207 18.7106 23.4656 18.723C23.663 18.723 23.9392 18.759 23.943 18.4893C23.9467 18.2197 23.6743 18.2905 23.4993 18.2868C22.9694 18.2768 22.4383 18.2868 21.9085 18.2756C21.3336 18.2594 21.0886 18.0022 21.0824 17.4454C21.0824 17.3683 21.0824 17.29 21.0824 17.213C21.0924 16.1678 21.2786 16.0211 22.3234 16.2125C22.3767 16.2199 22.4276 16.2391 22.4724 16.2688C22.5172 16.2985 22.5547 16.3379 22.582 16.384C22.8882 16.8737 23.3469 17.0464 23.903 16.993C24.1642 16.9681 24.2504 17.0179 24.2017 17.3161C24.1529 17.6144 23.9755 18.0618 24.5641 18.1302C24.5966 18.1302 24.6391 18.2607 24.6378 18.3303C24.6303 18.8883 24.8478 19.3891 25.0365 19.8937C25.1177 20.11 25.0477 20.1932 24.8565 20.1995C23.7668 20.2355 22.6683 20.3237 21.626 19.8875C20.7512 19.5234 20.2876 18.8324 20.3201 17.8878C20.4038 15.4233 20.6138 12.9737 21.2836 10.5838C21.3825 10.1599 21.577 9.76382 21.8522 9.4255C22.1122 9.12846 22.3983 8.92837 22.8182 8.96317C23.104 8.98876 23.3892 8.90866 23.6193 8.73822C24.2017 8.29578 24.8565 8.28832 25.5326 8.31691C25.7638 8.32685 25.9937 8.31939 26.2274 8.31939Z" fill="#425874"/>
<path d="M11.7372 8.4349C10.6287 9.21539 10.3963 10.5179 9.78391 11.5805C9.1878 12.6145 8.67918 13.6933 8.1393 14.7633C8.03683 14.9634 7.89936 15.0007 7.68316 14.9783C6.56968 14.8615 6.19977 15.1995 6.19602 16.3094C6.19602 16.7282 6.18602 17.147 6.19602 17.5659C6.19326 17.7198 6.22191 17.8728 6.28023 18.0154C6.33856 18.1581 6.42536 18.2875 6.53538 18.3959C6.64541 18.5043 6.77638 18.5893 6.92038 18.646C7.06439 18.7026 7.21844 18.7296 7.37324 18.7254C7.9506 18.7254 8.52671 18.7341 9.10407 18.7378C9.26654 18.7378 9.44899 18.7291 9.44774 18.5191C9.44774 18.3314 9.25029 18.3252 9.12532 18.3203C8.54921 18.3029 7.97184 18.3103 7.39448 18.3016C6.81712 18.2929 6.57843 18.0394 6.56468 17.4751C6.56468 17.367 6.56468 17.2576 6.56468 17.1495C6.58342 15.9067 6.56468 16.1851 7.61693 16.1441C7.70025 16.1309 7.78563 16.144 7.86113 16.1814C7.93664 16.2188 7.9985 16.2788 8.03808 16.3529C8.3555 16.8935 8.87038 17.0824 9.46649 17.029C9.74517 17.0041 9.76267 17.075 9.68644 17.2974C9.56147 17.6553 9.32027 18.0655 10.0089 18.1214C10.1238 18.1301 10.1213 18.2631 10.1126 18.3501C10.0588 18.9156 10.3113 19.4065 10.4962 19.9135C10.5475 20.0565 10.6575 20.2329 10.3713 20.2305C9.34652 20.223 8.31176 20.3398 7.31325 19.9819C6.20601 19.5854 5.73738 18.9876 5.80111 17.8231C5.8811 16.0156 6.06679 14.2142 6.35723 12.4281C6.49844 11.619 6.77088 10.8572 6.95209 10.0667C7.06831 9.56959 7.71191 9.10354 8.25178 9.04388C8.59295 9.0066 8.96661 8.97056 9.23029 8.76301C10.0139 8.15279 10.8886 8.47592 11.7372 8.4349Z" fill="#425874"/>
<path d="M11.9158 13.2882C12.1857 12.9153 12.4582 12.5338 12.7219 12.1523C12.8156 12.018 12.9556 11.8677 12.7294 11.7222C12.4769 11.5582 12.4582 11.8068 12.372 11.931C11.9883 12.4779 11.6046 13.0235 11.2272 13.574C11.1421 13.6851 11.0247 13.7675 10.8911 13.8102C10.7348 13.8748 10.5249 13.9345 10.6124 14.1594C10.7186 14.4216 10.9235 14.2762 11.0873 14.2079C11.6746 13.9593 12.2657 13.7244 12.8368 13.4622C13.133 13.3242 13.2742 13.3379 13.428 13.6747C13.7604 14.4204 13.7854 14.3993 13.0843 14.7671C12.147 15.2643 11.2172 15.7614 10.2837 16.2585C10.1187 16.3462 9.94939 16.4254 9.77632 16.4959C9.31018 16.6848 8.87279 16.6699 8.49787 16.2809C8.14671 15.908 8.21294 15.5041 8.41664 15.1039C8.89903 14.1495 9.39391 13.2012 9.88504 12.2455C10.22 11.598 10.5449 10.9442 10.8973 10.3067C11.2722 9.62313 11.8333 9.45535 12.5519 9.78221C13.2705 10.1091 13.6766 10.7317 13.9266 11.4588C13.9453 11.5122 13.9591 11.6129 13.9266 11.6328C13.5517 11.9025 13.5367 12.3561 13.3455 12.719C13.2891 12.8113 13.204 12.8829 13.103 12.9228C12.7281 13.0744 12.3532 13.2099 11.9783 13.3503L11.9158 13.2882Z" fill="#00BCD7"/>
<path d="M26.4037 13.2248C26.6419 12.8818 26.881 12.5392 27.121 12.197C27.2222 12.0516 27.4197 11.9012 27.1797 11.7322C26.966 11.583 26.881 11.798 26.7848 11.926C26.4224 12.4095 26.05 12.8867 25.7138 13.3888C25.6027 13.5891 25.4264 13.746 25.2139 13.8338C25.0702 13.8847 24.964 13.9817 25.0327 14.1519C25.109 14.3421 25.2527 14.2762 25.3839 14.2203C26.0287 13.9605 26.6798 13.7231 27.3147 13.4348C27.6309 13.2931 27.7796 13.3689 27.9233 13.6685C28.2482 14.3458 28.2545 14.3234 27.5721 14.6876C26.6311 15.1847 25.7076 15.7241 24.769 16.2299C24.4977 16.3762 24.2121 16.4949 23.9168 16.5841C23.7525 16.6375 23.5754 16.6375 23.4112 16.5841C23.2469 16.5307 23.104 16.4267 23.0032 16.2871C22.7795 16.0149 22.687 15.6905 22.8283 15.3724C23.5781 13.6908 24.4379 12.0665 25.2777 10.4297C25.7376 9.53362 26.3449 9.37951 27.2322 9.89279C27.5744 10.0828 27.8579 10.3621 28.052 10.7006C28.2732 11.0958 28.3494 11.4152 28.1632 11.9434C27.8508 12.8308 27.216 13.0881 26.4699 13.3242L26.4037 13.2248Z" fill="#00BCD7"/>
<path d="M27.8959 8.89729C29.4418 8.87616 30.7902 9.92634 30.9639 11.2512C31.0226 11.7023 30.9414 12.1746 30.9089 12.6369C30.7839 14.4328 30.6465 16.2287 30.5277 18.0245C30.5065 18.3588 30.4115 18.4918 30.0354 18.4868C28.5057 18.4632 26.9761 18.4868 25.4452 18.4769C25.304 18.4769 25.064 18.6012 25.039 18.3228C25.0191 18.1041 24.9666 17.8717 25.2465 17.7188C25.7101 17.4702 26.1613 17.1856 26.5999 16.8898C27.5709 16.2324 28.4907 15.5153 29.2031 14.5695C29.2608 14.4963 29.328 14.4311 29.403 14.3756C30.1916 13.794 30.3165 13.1415 29.7967 12.2628C29.7513 12.1828 29.7276 12.0925 29.7279 12.0006C29.6555 10.7006 29.1743 9.62185 27.8959 8.89729Z" fill="#00BCD7"/>
<path d="M25.9163 21.3466C26.7099 22.2401 27.4785 23.0306 28.2783 23.7912C28.4295 23.9341 28.4307 24.0671 28.3545 24.246C27.9573 25.1737 27.4981 26.0739 26.9798 26.9405C26.7649 27.3009 26.4362 27.5407 26.105 27.7632C25.1578 28.3908 24.1942 28.9961 23.2445 29.6274C23.042 29.7604 22.9633 29.7144 22.8621 29.5131C22.6596 29.1129 22.4284 28.7276 22.2047 28.3386C22.0697 28.1 22.091 27.9235 22.3422 27.757C22.7558 27.4811 23.1232 27.1356 23.5519 26.887C24.6354 26.2656 25.0765 25.2639 25.3015 24.1106C25.4777 23.2071 25.6964 22.3222 25.9163 21.3466Z" fill="#425874"/>
<path d="M8.58421 29.7033C8.44799 29.7033 8.423 29.5989 8.37926 29.5218C8.15431 29.1142 7.94186 28.7003 7.70567 28.3001C7.56945 28.069 7.5882 27.9198 7.82314 27.7645C8.2118 27.5072 8.55297 27.1716 8.95912 26.9529C10.1788 26.2967 10.6225 25.1807 10.8724 23.9266C11.0161 23.1996 11.1761 22.475 11.3136 21.7468C11.376 21.4087 11.4898 21.4423 11.676 21.6585C12.2933 22.3793 12.9857 23.0256 13.6642 23.6905C13.8667 23.8881 13.9567 24.0919 13.823 24.3504C13.3718 25.2291 12.9969 26.15 12.437 26.9802C12.2276 27.2702 11.9621 27.5157 11.656 27.7023C10.7 28.3424 9.73269 28.9625 8.76916 29.5889L8.58421 29.7033Z" fill="#425874"/>
<path d="M13.8016 9.16573C15.29 9.15579 16.3985 10.0941 16.4935 11.4177C16.5245 11.9849 16.4859 12.5538 16.3785 13.1117C16.2935 13.5964 16.3023 14.086 16.246 14.5695C16.1098 15.7328 16.0786 16.9072 16.0311 18.078C16.0173 18.4011 15.9061 18.4931 15.5899 18.4906C13.9991 18.4781 12.4082 18.4906 10.8173 18.4906C10.6686 18.4906 10.4424 18.5763 10.4187 18.3054C10.3949 18.0842 10.4049 17.8878 10.6624 17.7697C11.5459 17.3646 12.317 16.7755 13.0855 16.2001C13.7052 15.7148 14.2715 15.1657 14.7751 14.562C14.8453 14.48 14.925 14.4066 15.0126 14.3433C15.6624 13.8797 15.8249 13.1005 15.4037 12.4418C15.3347 12.3589 15.2913 12.2579 15.2788 12.151C15.2538 10.9728 14.8439 9.97356 13.8016 9.16573Z" fill="#00BCD7"/>
<path d="M30.6039 3.28716C31.1038 3.32817 31.6037 3.35924 32.0923 3.22502C32.2885 3.17158 32.3423 3.26231 32.3835 3.41517C32.4548 3.71593 32.5435 4.01545 32.5872 4.32118C32.6197 4.54489 32.7734 4.86554 32.311 4.86802C32.2875 4.87159 32.2649 4.87988 32.2447 4.89237C32.2244 4.90486 32.207 4.92131 32.1933 4.9407C32.1796 4.9601 32.1701 4.98206 32.1652 5.00524C32.1603 5.02842 32.1602 5.05234 32.1648 5.07557C32.1786 5.18867 32.2411 5.30549 32.3573 5.31295C32.681 5.33283 32.626 5.53169 32.581 5.73302C32.5585 5.83742 32.5335 5.94181 32.506 6.04621C32.2648 6.96465 31.9236 7.08893 31.1076 6.55328C31.0194 6.49143 30.9359 6.42332 30.8576 6.34946C30.7639 6.26619 30.6714 6.23263 30.5739 6.33579C30.55 6.35649 30.5311 6.38235 30.5187 6.41141C30.5063 6.44047 30.5008 6.47195 30.5025 6.50346C30.5041 6.53498 30.513 6.5657 30.5285 6.59328C30.5439 6.62087 30.5654 6.64459 30.5914 6.66265C30.8569 6.89279 31.1622 7.07303 31.4925 7.19457C31.7237 7.2853 31.7799 7.40088 31.5362 7.56742C30.8664 8.03844 30.1615 8.15154 29.383 7.85948C29.2318 7.80231 29.0268 7.61091 28.9193 7.90298C28.8306 8.14284 29.0443 8.19255 29.2068 8.22984C29.4717 8.29198 29.4567 8.44981 29.3955 8.64742C29.3217 8.89599 29.1593 8.7891 29.0206 8.73566C28.5282 8.54054 28.0521 8.30813 27.5347 8.1764C27.4359 8.15154 27.3172 8.10555 27.3985 7.9502C27.6197 7.53262 27.5984 7.05165 27.7559 6.61791C27.8059 6.47747 27.8596 6.32833 28.072 6.3594C28.1708 6.37431 28.307 6.38923 28.322 6.2289C28.332 6.09468 28.272 6.02384 28.142 5.94927C27.7996 5.75042 27.4622 5.52671 27.6596 5.03083C27.7171 4.88666 27.6596 4.6816 27.9271 4.68657C28.1583 4.68657 28.402 4.62816 28.5082 4.93513C28.5694 5.10913 28.6332 5.30798 28.8831 5.27318C29.133 5.23838 29.1918 5.04326 29.268 4.85187C29.413 4.48896 29.3242 4.11488 29.3217 3.74576C29.3217 3.40399 29.4105 3.22378 29.8041 3.2797C30.0702 3.30046 30.3375 3.30295 30.6039 3.28716ZM30.9039 5.30549C30.9784 5.29276 31.046 5.25396 31.0943 5.19608C31.1427 5.1382 31.1686 5.06505 31.1676 4.98982C31.1676 4.82825 31.0688 4.6816 30.8801 4.70024C30.8415 4.7041 30.804 4.71585 30.7702 4.73476C30.7363 4.75366 30.7067 4.77931 30.6832 4.8101C30.6598 4.8409 30.643 4.87617 30.6338 4.91372C30.6247 4.95128 30.6235 4.9903 30.6302 5.02835C30.6377 5.1924 30.7427 5.27069 30.9039 5.30549Z" fill="#DAB081"/>
<path d="M17.3134 7.41089C16.696 8.14539 15.7687 8.34797 14.8764 7.97264C14.759 7.92293 14.6178 7.72408 14.4878 7.94654C14.3578 8.16901 14.5565 8.21996 14.6777 8.2995C15.0002 8.51327 15.0027 8.50954 14.8552 8.93085C14.3403 8.72579 13.8292 8.50705 13.3068 8.31939C13.0569 8.22866 12.9581 8.12675 13.0644 7.84836C13.1651 7.55533 13.2445 7.25545 13.3018 6.95105C13.3706 6.65153 13.443 6.36693 13.8354 6.35823C13.8828 6.36039 13.9293 6.34449 13.9652 6.31378C14.0012 6.28306 14.0241 6.23984 14.0291 6.19293C14.0466 6.05995 13.9492 6.00775 13.8392 5.96674C13.4343 5.8176 13.2906 5.52678 13.4018 5.1179C13.4243 5.01883 13.4778 4.9294 13.5546 4.86242C13.6314 4.79545 13.7275 4.75436 13.8292 4.74505C14.0591 4.71522 14.1779 4.84821 14.2328 5.04706C14.2878 5.24591 14.3716 5.35652 14.584 5.34409C14.7965 5.33166 14.8564 5.16885 14.9239 4.97124C15.0352 4.59826 15.1217 4.21838 15.1826 3.83407C15.2326 3.58551 15.2601 3.54574 15.5275 3.62403C16.2774 3.84774 17.0372 4.0702 17.8382 4.02049C18.0882 4.00433 18.1719 4.12364 18.1832 4.34611C18.1893 4.49964 18.2069 4.6525 18.2356 4.80346C18.2669 4.94887 18.2656 5.05203 18.0782 5.05203C18.0431 5.04648 18.0073 5.0489 17.9733 5.05911C17.9393 5.06932 17.9081 5.08705 17.882 5.11097C17.8559 5.13488 17.8356 5.16437 17.8226 5.19721C17.8096 5.23006 17.8043 5.2654 17.807 5.30059C17.7995 5.45594 17.8407 5.58768 18.0207 5.60259C18.2619 5.62372 18.1894 5.78032 18.1582 5.90708C18.1125 6.0689 18.0583 6.2282 17.9957 6.38433C17.9007 6.63289 17.832 7.04302 17.6208 7.06414C17.2543 7.08139 16.8956 6.95563 16.621 6.71367C16.5498 6.65526 16.4961 6.57075 16.4336 6.50861C16.4127 6.48527 16.3871 6.4666 16.3585 6.45381C16.3298 6.44102 16.2988 6.43441 16.2674 6.43441C16.236 6.43441 16.2049 6.44102 16.1763 6.45381C16.1476 6.4666 16.122 6.48527 16.1011 6.50861C15.9512 6.64283 16.0762 6.72361 16.1586 6.81061C16.4654 7.13331 16.8719 7.34463 17.3134 7.41089ZM16.871 5.14027C16.8708 5.106 16.8638 5.07211 16.8504 5.04056C16.8369 5.00902 16.8173 4.98044 16.7926 4.9565C16.768 4.93256 16.7388 4.91374 16.7068 4.90112C16.6747 4.8885 16.6405 4.88235 16.606 4.883C16.3961 4.883 16.3161 5.04084 16.3273 5.23099C16.3286 5.26535 16.3371 5.29907 16.3522 5.33001C16.3673 5.36096 16.3886 5.38845 16.4149 5.41076C16.4413 5.43307 16.4719 5.44971 16.505 5.45963C16.5381 5.46954 16.573 5.47252 16.6073 5.46837C16.781 5.4547 16.8635 5.32172 16.871 5.14027Z" fill="#DAB081"/>
<path d="M27.2522 6.50983C26.8342 5.32384 26.6488 4.06914 26.7061 2.8137C26.7323 2.25444 27.0022 1.88781 27.5309 1.7163C27.6531 1.68917 27.7604 1.61672 27.8308 1.51372C28.0945 1.06506 28.5394 0.994222 28.993 0.960666C29.7428 0.897282 30.4839 1.04766 31.2312 1.04891C31.8636 1.04891 32.4734 0.95818 33.0071 0.596521C33.242 0.441169 33.2957 0.54308 33.367 0.745659C33.6544 1.60817 33.0533 2.59994 32.1173 2.8137C31.2987 2.99888 30.4714 2.90691 29.6466 2.90816C28.9805 2.90816 28.968 2.91934 28.9793 3.58549C28.9843 3.88045 28.9805 4.175 28.968 4.46913C28.968 4.65183 28.8755 4.67295 28.7293 4.56856C28.2295 4.21311 27.9058 4.19571 27.5871 4.49772C27.4107 4.66317 27.3007 4.88674 27.2777 5.12681C27.2548 5.36688 27.3203 5.60708 27.4621 5.80267C27.6746 6.11462 27.6408 6.32714 27.2522 6.50983Z" fill="#004151"/>
<path d="M14.6614 4.72268C14.2453 4.33244 13.8629 4.13483 13.4192 4.43808C12.9543 4.75624 12.8444 5.24964 13.0756 5.84743C13.1081 5.93443 13.1568 6.01521 13.1868 6.10345C13.1957 6.12954 13.1992 6.15715 13.1971 6.18462C13.195 6.21209 13.1874 6.23886 13.1747 6.26334C13.162 6.28781 13.1444 6.30949 13.1231 6.32708C13.1018 6.34466 13.0771 6.35779 13.0506 6.36569C12.8719 6.4415 12.8869 6.26253 12.8681 6.18175C12.6394 5.20117 12.3832 4.22432 12.4682 3.19899C12.5194 2.57759 12.7931 2.11899 13.2968 1.71631C14.4527 0.789175 15.6287 0.852558 16.8572 1.50131C17.5545 1.87415 18.2668 2.16994 19.0841 2.073C19.4041 2.03572 19.4091 2.1861 19.3341 2.43218C19.0841 3.22385 18.1719 3.69115 17.1508 3.5358C16.6117 3.45482 16.0795 3.33351 15.5587 3.17289C14.9926 2.99766 14.8539 3.09584 14.8089 3.65759C14.7714 3.977 14.7177 4.29888 14.6614 4.72268Z" fill="#004151"/>
<path d="M8.07307 8.604C7.76926 8.60326 7.46872 8.54152 7.18948 8.42249C6.91024 8.30347 6.65803 8.1296 6.44798 7.9113C6.23793 7.69301 6.07436 7.43479 5.96707 7.15212C5.85978 6.86945 5.81098 6.56814 5.8236 6.26627C5.82885 5.96694 5.89334 5.67158 6.01337 5.39704C6.1334 5.12249 6.30664 4.87415 6.52318 4.66619C6.73972 4.45823 6.99533 4.29472 7.27541 4.185C7.55549 4.07528 7.85456 4.02149 8.15555 4.02671C8.45653 4.03194 8.75353 4.09606 9.0296 4.21544C9.30566 4.33481 9.55538 4.50709 9.76449 4.72243C9.97361 4.93778 10.138 5.19198 10.2484 5.47052C10.3587 5.74906 10.4128 6.04648 10.4075 6.34581C10.3725 7.58117 9.29153 8.62637 8.07307 8.604ZM6.54968 6.29361C6.54968 7.13748 7.12829 7.85334 7.90436 7.93785C8.06057 7.95525 8.28802 8.03479 8.33925 7.7999C8.39799 7.52648 8.15555 7.524 7.97309 7.50038C7.41822 7.42954 7.1083 7.07907 6.98333 6.57821C6.92377 6.36835 6.92911 6.14551 6.99865 5.9387C7.06819 5.73189 7.19871 5.55069 7.37323 5.41867C7.73315 5.12412 8.1318 5.05452 8.5517 5.26083C8.72482 5.33674 8.87062 5.46323 8.96973 5.6235C9.06884 5.78378 9.11656 5.97025 9.10657 6.15814C9.11118 6.24388 9.09565 6.32951 9.06122 6.40825C9.02679 6.48698 8.97439 6.55667 8.90819 6.61178C8.84198 6.66688 8.76378 6.70591 8.67978 6.72575C8.59578 6.7456 8.50829 6.74572 8.42423 6.72611C8.1568 6.66397 8.04932 6.50613 8.23053 6.25632C8.33675 6.11092 8.55545 5.97172 8.28177 5.81885C8.07307 5.70203 7.88436 5.81885 7.77189 6.01398C7.69245 6.14039 7.6535 6.28782 7.6602 6.43674C7.66689 6.58566 7.71892 6.72904 7.80938 6.8479C7.99184 7.09647 8.23803 7.35249 8.5767 7.27419C9.31402 7.10144 9.66894 6.50862 9.53022 5.90709C9.34152 5.08684 8.69292 4.64564 7.82313 4.74879C7.0783 4.84697 6.55343 5.47708 6.54968 6.29361Z" fill="#81B0A9"/>
<path d="M20.2538 6.41038C20.2226 5.10542 21.2173 4.03163 22.477 4.01299C23.7105 3.9931 24.7902 4.99605 24.7965 6.21774C24.8027 7.50157 23.8217 8.46723 22.5708 8.57909C21.471 8.67106 20.1688 7.48044 20.2538 6.41038ZM20.9312 6.28609C20.9387 7.09517 21.6397 7.87814 22.4246 7.94152C22.6008 7.95519 22.8395 8.00988 22.8607 7.73397C22.8795 7.48541 22.6533 7.50032 22.4858 7.48541C21.9409 7.42824 21.601 7.11257 21.4285 6.62538C21.2673 6.16803 21.4285 5.76784 21.7572 5.43849C21.895 5.30064 22.0694 5.20459 22.26 5.16154C22.4506 5.11849 22.6496 5.13021 22.8338 5.19535C23.018 5.26048 23.1797 5.37634 23.3002 5.52941C23.4207 5.68248 23.495 5.86646 23.5143 6.0599C23.553 6.47252 23.2269 6.79316 22.8632 6.69125C22.6133 6.62041 22.3971 6.48743 22.687 6.21028C22.812 6.086 22.9107 5.96172 22.7607 5.82252C22.5845 5.64977 22.4083 5.75044 22.2721 5.89212C22.1754 5.99526 22.1118 6.12474 22.0896 6.26401C22.0673 6.40327 22.0874 6.54598 22.1471 6.67385C22.1933 6.81518 22.281 6.93956 22.3988 7.03101C22.5166 7.12247 22.6591 7.17683 22.8082 7.18714C23.5081 7.25176 24.0579 6.66142 23.9529 5.94432C23.9047 5.58753 23.7241 5.26153 23.4467 5.03025C23.1693 4.79896 22.815 4.67906 22.4533 4.69405C22.0436 4.71712 21.6581 4.8946 21.3753 5.19038C21.0925 5.48615 20.9337 5.87797 20.9312 6.28609Z" fill="#81B0A9"/>
<path d="M18.8867 31.5227C18.3581 31.5227 17.8282 31.5376 17.3009 31.5227C16.6997 31.5003 16.8997 30.9883 16.851 30.6776C16.796 30.3271 17.1259 30.506 17.2784 30.4911C17.617 30.4576 17.9607 30.4737 18.3031 30.4688C18.5193 30.4688 18.718 30.4439 18.8717 30.6776C18.9967 30.869 19.2004 30.7472 19.3716 30.6776C19.6149 30.5969 19.8778 30.5964 20.1214 30.6761C20.365 30.7558 20.5762 30.9114 20.7238 31.12C20.8725 31.3611 20.8625 31.5314 20.5126 31.5301C19.974 31.5214 19.4304 31.5239 18.8867 31.5227Z" fill="black"/>
<path d="M33.457 31.5214C32.9433 31.5214 32.4297 31.5214 31.9161 31.5214C31.5412 31.5152 31.3912 31.2729 31.395 30.7248C31.395 30.3345 31.6899 30.4911 31.8686 30.4762C32.2098 30.4501 32.5534 30.4576 32.8959 30.4601C33.0883 30.4601 33.2708 30.424 33.4132 30.6602C33.5382 30.8689 33.7594 30.7509 33.9519 30.6602C34.3893 30.4625 35.0703 30.7198 35.279 31.1436C35.404 31.3922 35.344 31.5227 35.0441 31.5165C34.7792 31.5078 34.5142 31.5165 34.2505 31.5165H33.457V31.5214Z" fill="black"/>
<path d="M22.7808 31.5178C22.4446 31.5924 22.2459 31.4121 22.0972 31.1524C21.6998 30.4527 21.3161 29.7455 20.9087 29.0508C20.6788 28.6618 21.0437 28.6183 21.2236 28.4766C21.4036 28.3349 21.6485 28.2032 21.821 28.4841C22.1034 28.9452 22.3546 29.4236 22.6208 29.8934C22.6439 29.9248 22.6581 29.9618 22.6618 30.0005C22.6656 30.0392 22.6587 30.0782 22.6421 30.1134C22.4933 30.3843 22.6358 30.5459 22.8508 30.6888C22.9249 30.7449 22.9954 30.8055 23.062 30.8703C23.2257 31.0169 23.3181 31.2058 23.2344 31.4097C23.1507 31.6135 22.9307 31.483 22.7808 31.5178Z" fill="black"/>
<path d="M8.19553 31.5215C7.90935 31.5799 7.71939 31.4245 7.57068 31.1399C7.21826 30.4514 6.8396 29.7728 6.47844 29.0917C6.18976 28.5462 6.76712 28.5399 6.98957 28.3461C7.26075 28.1149 7.31449 28.4703 7.39572 28.6033C7.62816 28.9861 7.93184 29.3726 8.00932 29.7939C8.1018 30.3022 8.25926 30.6801 8.65167 31.0368C8.9391 31.294 8.73165 31.5314 8.19553 31.5215Z" fill="black"/>
<path d="M11.0474 4.33118C12.0659 4.33118 12.0659 4.33118 12.2608 5.27696C12.3408 5.67217 12.4158 6.06863 12.502 6.4626C12.5308 6.59683 12.5445 6.78574 12.6357 6.84788C13.0769 7.14988 12.7607 7.46183 12.6757 7.76756C12.5795 8.12798 12.2796 7.97138 12.0509 7.995C11.9259 8.00867 11.8009 8.02482 11.676 8.03352C11.4398 8.04844 11.366 7.9863 11.4823 7.73898C12.0421 6.54712 11.9746 5.42734 11.0561 4.41817C11.0461 4.39953 11.0524 4.361 11.0474 4.33118Z" fill="#81B0A9"/>
<path d="M25.4464 4.31382C25.6021 4.32208 25.7581 4.32208 25.9138 4.31382C26.2437 4.27654 26.3687 4.42195 26.4337 4.74135C26.5586 5.33169 26.7299 5.91208 26.8873 6.49496C26.9198 6.61924 26.9411 6.77335 27.0248 6.83425C27.4697 7.15241 27.2572 7.5352 27.041 7.78376C26.7773 8.08577 26.3362 7.91674 25.9775 7.89561C25.7763 7.88443 25.9325 7.69801 25.9775 7.61101C26.1945 7.17729 26.2813 6.69059 26.2275 6.20911C26.085 5.25215 26.0738 5.25339 25.4464 4.31382Z" fill="#81B0A9"/>
<path d="M13.8716 14.8242C12.8456 16.067 11.5172 16.8699 10.1025 17.6206C10.0638 17.0774 10.2275 16.7357 10.7273 16.4921C11.7271 15.995 12.6944 15.4357 13.6766 14.905C13.74 14.8744 13.8051 14.8475 13.8716 14.8242Z" fill="#425874"/>
<path d="M20.1264 14.3383C20.0364 15.4829 19.9502 16.5554 19.869 17.628C19.854 17.8219 19.7652 17.8231 19.619 17.7398C19.4025 17.6116 19.2416 17.4078 19.1679 17.1681C18.9754 16.5915 19.3016 14.8888 19.874 14.4588C19.955 14.4125 20.0394 14.3722 20.1264 14.3383Z" fill="#425874"/>
<path d="M5.6236 14.3929C5.64206 14.5723 5.64206 14.753 5.6236 14.9323C5.4199 15.8247 5.48613 16.7406 5.37366 17.6404C5.34117 17.8964 5.24869 17.889 5.08998 17.7647C4.74256 17.5025 4.55635 17.157 4.61009 16.7207C4.67462 16.153 4.80031 15.5939 4.985 15.0529C5.02851 14.8991 5.10958 14.7583 5.22099 14.6432C5.3324 14.528 5.47071 14.4421 5.6236 14.3929Z" fill="#425874"/>
<path d="M28.3932 14.8318C27.6683 15.6545 26.7861 16.2871 25.8675 16.8737C25.5663 17.0651 25.2589 17.2465 24.9477 17.4255C24.8465 17.4827 24.7278 17.5896 24.6078 17.4877C24.5078 17.4019 24.5978 17.2863 24.6153 17.1832C24.6208 17.0824 24.6508 16.9845 24.7029 16.8979C24.7549 16.8113 24.8274 16.7386 24.914 16.686C25.975 16.0957 27.0297 15.4954 28.087 14.8989C28.1788 14.838 28.2906 14.8144 28.3994 14.833L28.3932 14.8318Z" fill="#425874"/>
<path d="M24.6865 7.8632C25.5001 6.56818 25.4289 5.37757 24.3916 4.24536C24.924 4.36964 25.2464 4.7313 25.4788 5.15759C25.6718 5.50375 25.781 5.88988 25.7977 6.28532C25.8144 6.68076 25.7381 7.07463 25.5751 7.43567C25.4089 7.83834 25.1764 8.04962 24.6865 7.8632Z" fill="#81B0A9"/>
<path d="M28.5032 12.2218C28.6169 12.5623 28.8693 12.612 29.1505 12.5611C29.5754 12.4865 29.6879 12.7363 29.6679 13.0644C29.6529 13.3304 29.6879 13.6274 29.4567 13.8437C29.018 14.2513 28.7069 14.142 28.3532 13.6734C27.9295 13.1079 28.3444 12.7102 28.5032 12.2218Z" fill="#DAB081"/>
<path d="M13.9966 12.0776C14.1079 12.5872 14.3591 12.668 14.7077 12.6058C15.0564 12.5437 15.2076 12.7301 15.1826 13.0582C15.1752 13.2433 15.1526 13.4274 15.1151 13.6088C15.0214 14.0251 14.634 14.0699 14.3191 14.1556C14.0041 14.2414 14.0504 13.8847 13.9204 13.7393C13.448 13.2098 13.8417 12.7251 13.9966 12.0776Z" fill="#DAB081"/>
<path d="M11.5322 9.19682C11.6859 8.90973 11.9159 8.94826 12.1208 8.94826C13.358 8.9669 14.6202 10.1525 14.7952 11.501C14.8227 11.716 15.1351 12.1224 14.6702 12.1858C14.2678 12.2454 14.4053 11.7993 14.3603 11.5942C14.0354 10.1053 13.2606 9.41929 11.5322 9.19682Z" fill="#425874"/>
<path d="M25.9475 9.19675C26.125 8.93079 26.3349 8.81148 26.5724 8.88108C27.4621 9.1458 28.3494 9.41797 28.8468 10.3165C29.099 10.7607 29.26 11.2504 29.3205 11.7569C29.3342 11.8812 29.4142 12.0552 29.218 12.1112C29.0218 12.1671 28.958 12.0068 28.9181 11.8514C28.8681 11.6563 28.8218 11.4612 28.7693 11.2673C28.4069 9.97475 27.5396 9.32103 25.9475 9.19675Z" fill="#425874"/>
<path d="M10.0776 4.25159C11.3822 4.88169 11.8184 6.64152 10.9523 7.77248C10.7724 8.00986 10.5624 7.97009 10.2888 7.91913C11.0536 6.64649 10.9711 5.44718 10.0076 4.32616L10.0776 4.25159Z" fill="#81B0A9"/>
<path d="M32.1923 15.0629C32.0891 15.2514 32.0392 15.4643 32.048 15.6787C32.0569 15.8932 32.124 16.1013 32.2423 16.2808C32.2234 16.2949 32.2028 16.3066 32.181 16.3156C31.0101 16.5058 30.8001 16.2535 31.1263 15.0728C31.1675 14.9224 31.2375 14.9113 31.3575 14.9299L32.1923 15.0629Z" fill="#DAB081"/>
<path d="M17.7657 16.3628C16.5372 16.5058 16.4522 16.4188 16.616 15.2443C16.646 15.0293 16.6859 14.8926 16.9546 14.9771C17.1053 15.0123 17.2598 15.0282 17.4145 15.0243C17.572 15.0318 17.6557 15.0952 17.5982 15.2542C17.4583 15.6507 17.587 16.0086 17.7657 16.3628Z" fill="#81B0A9"/>
<path d="M33.6932 15.6595C33.6719 16.0323 33.4995 16.2809 33.1033 16.3095C32.7846 16.3306 32.466 16.0087 32.4647 15.6881C32.4647 15.3152 32.8084 14.8927 33.1008 14.9063C33.467 14.925 33.7032 15.2245 33.6932 15.6595Z" fill="#DAB081"/>
<path d="M18.938 15.2929C18.9156 15.4676 18.8801 15.6404 18.8317 15.8099C18.7655 15.9888 18.8867 16.307 18.5605 16.307C18.2344 16.307 18.0607 16.087 17.9707 15.8012C17.8695 15.4718 18.0957 15.2469 18.2656 15.0132C18.3906 14.8355 18.5705 14.915 18.733 14.9697C18.8955 15.0244 19.0154 15.1126 18.938 15.2929Z" fill="#DAB081"/>
<path d="M7.27203 15.8011C7.08708 15.7017 6.73841 15.9254 6.72591 15.647C6.71342 15.3984 7.06083 15.3699 7.28953 15.3984C7.48948 15.422 7.8494 15.2406 7.8544 15.5737C7.86064 15.9714 7.46199 15.6843 7.27203 15.8011Z" fill="#425874"/>
<path d="M21.6786 15.7663C21.5536 15.6905 21.2274 15.9192 21.2224 15.6246C21.2224 15.3624 21.5373 15.3985 21.7498 15.3835C21.8117 15.3767 21.8741 15.3767 21.936 15.3835C22.0872 15.4047 22.3221 15.3152 22.3109 15.5936C22.2997 15.8334 22.0885 15.7464 21.9497 15.7663C21.8594 15.7722 21.7689 15.7722 21.6786 15.7663Z" fill="#425874"/>
<path d="M13.0044 8.71702C12.789 8.69064 12.5854 8.6045 12.417 8.46846C12.5315 8.4499 12.6486 8.455 12.7611 8.48344C12.8735 8.51187 12.9789 8.56304 13.0706 8.63376L13.0044 8.71702Z" fill="#425874"/>
<path d="M13.7129 8.93579C13.7517 8.98302 13.7929 9.03024 13.7442 9.09487L13.6479 9.01036L13.7129 8.93579Z" fill="#425874"/>
<path d="M13.648 9.01032C13.598 8.98173 13.4793 8.98546 13.538 8.89349C13.583 8.8239 13.663 8.88604 13.713 8.93575L13.648 9.01032Z" fill="#425874"/>
<path d="M13.0706 8.64001L13.1956 8.74068C13.1206 8.80904 13.0606 8.76181 12.9994 8.71583L13.0706 8.64001Z" fill="#425874"/>
<path d="M10.0138 4.32625L9.96631 4.23926L10.0775 4.25293L10.0138 4.32625Z" fill="#81B0A9"/>
<path d="M28.3995 14.8367L28.432 14.792C28.432 14.8007 28.432 14.8131 28.432 14.8168C28.421 14.8233 28.4092 14.8283 28.397 14.8318L28.3995 14.8367Z" fill="#935B50"/>
<path d="M26.4675 13.3204H26.36C26.3737 13.2881 26.3887 13.257 26.4037 13.2247L26.4675 13.3204Z" fill="#DAB081"/>
<path d="M13.393 8.82394C13.383 8.8314 13.3705 8.84755 13.3592 8.84755C13.348 8.84755 13.3393 8.82891 13.328 8.81897C13.3405 8.81027 13.3517 8.79411 13.363 8.79536C13.3742 8.7966 13.383 8.82394 13.393 8.82394Z" fill="#425874"/>
<path d="M30.9039 5.3055C30.7377 5.2707 30.6377 5.1924 30.6315 5.02835C30.6247 4.9903 30.626 4.95128 30.6351 4.91373C30.6442 4.87618 30.661 4.8409 30.6845 4.81011C30.708 4.77932 30.7376 4.75367 30.7714 4.73476C30.8053 4.71586 30.8428 4.70411 30.8814 4.70025C31.0701 4.68161 31.1638 4.82453 31.1688 4.98983C31.1699 5.06524 31.1437 5.13854 31.0951 5.19644C31.0465 5.25435 30.9787 5.29304 30.9039 5.3055Z" fill="#141617"/>
<path d="M16.8709 5.14025C16.8634 5.3217 16.781 5.45468 16.6073 5.47332C16.5725 5.4775 16.5373 5.47438 16.5039 5.46417C16.4704 5.45396 16.4395 5.43688 16.4131 5.41403C16.3867 5.39119 16.3655 5.36309 16.3507 5.33156C16.3359 5.30002 16.3279 5.26576 16.3273 5.23097C16.3161 5.04082 16.3961 4.88795 16.606 4.88298C16.6405 4.88232 16.6747 4.88848 16.7067 4.9011C16.7388 4.91372 16.768 4.93254 16.7926 4.95648C16.8173 4.98042 16.8369 5.00899 16.8503 5.04054C16.8638 5.07209 16.8708 5.10598 16.8709 5.14025Z" fill="#141617"/>
<path d="M6.54959 6.29354C6.54959 5.47701 7.07822 4.84194 7.81929 4.7537C8.69408 4.65054 9.33768 5.09174 9.52638 5.912C9.6651 6.50855 9.31019 7.10137 8.57286 7.2791C8.23419 7.35739 7.988 7.10634 7.80554 6.85281C7.71508 6.73395 7.66306 6.59056 7.65636 6.44165C7.64967 6.29273 7.68862 6.1453 7.76805 6.01888C7.88053 5.82376 8.06923 5.70693 8.27793 5.82376C8.55162 5.97663 8.33292 6.11582 8.22669 6.26123C8.04174 6.50979 8.15296 6.66887 8.4204 6.73101C8.50445 6.75062 8.59194 6.7505 8.67594 6.73066C8.75994 6.71081 8.83814 6.67179 8.90435 6.61668C8.97056 6.56157 9.02295 6.49189 9.05738 6.41315C9.09182 6.33442 9.10734 6.24879 9.10273 6.16305C9.11273 5.97516 9.065 5.78869 8.96589 5.62841C8.86678 5.46814 8.72099 5.34164 8.54787 5.26574C8.12297 5.05446 7.72931 5.12405 7.37315 5.4186C7.19929 5.55109 7.06951 5.7325 7.00065 5.93928C6.93179 6.14606 6.92703 6.36865 6.98699 6.57815C7.11196 7.07527 7.42189 7.42948 7.97675 7.50032C8.15921 7.52393 8.40165 7.52642 8.34292 7.79984C8.29168 8.03473 8.06423 7.95519 7.90802 7.93779C7.12321 7.85328 6.54459 7.13741 6.54959 6.29354Z" fill="#141617"/>
<path d="M20.9313 6.28615C20.9341 5.87865 21.0927 5.48748 21.3749 5.19203C21.6571 4.89659 22.0418 4.71901 22.4509 4.69535C22.8126 4.68036 23.1669 4.80026 23.4443 5.03154C23.7217 5.26283 23.9023 5.58882 23.9506 5.94562C24.0505 6.66396 23.5057 7.2543 22.8058 7.18843C22.6567 7.17813 22.5142 7.12376 22.3964 7.03231C22.2786 6.94085 22.191 6.81648 22.1447 6.67515C22.085 6.54728 22.0649 6.40457 22.0872 6.26531C22.1095 6.12604 22.173 5.99655 22.2697 5.89342C22.4059 5.75174 22.5821 5.64486 22.7583 5.82382C22.9083 5.96923 22.8133 6.08978 22.6846 6.21158C22.3947 6.48873 22.6109 6.62171 22.8608 6.69255C23.2245 6.79446 23.5506 6.47381 23.5119 6.0612C23.4926 5.86776 23.4183 5.68378 23.2978 5.53071C23.1773 5.37763 23.0156 5.26178 22.8314 5.19664C22.6473 5.13151 22.4483 5.11979 22.2576 5.16284C22.067 5.20589 21.8926 5.30194 21.7548 5.43979C21.4274 5.76914 21.2649 6.16932 21.4262 6.62668C21.5986 7.11635 21.9385 7.42954 22.4834 7.48671C22.6459 7.50286 22.8721 7.48671 22.8583 7.73527C22.8371 8.01118 22.5984 7.95649 22.4222 7.94282C21.6399 7.87819 20.9388 7.09522 20.9313 6.28615Z" fill="#141617"/>
</g>
<path d="M46 9.96881V7.31824H59.9261V9.96881H54.5313V24.7728H51.3949V9.96881H46Z" fill="#0B2F51"/>
<path d="M60.6351 24.7728V11.6819H63.6265V13.8637H63.7629C64.0015 13.108 64.4106 12.5256 64.9902 12.1165C65.5754 11.7018 66.243 11.4944 66.993 11.4944C67.1635 11.4944 67.3538 11.5029 67.564 11.5199C67.7799 11.5313 67.9589 11.5512 68.101 11.5796V14.4177C67.9703 14.3722 67.7629 14.3324 67.4788 14.2984C67.2004 14.2586 66.9305 14.2387 66.6691 14.2387C66.1066 14.2387 65.601 14.3609 65.1521 14.6052C64.7089 14.8438 64.3595 15.1762 64.1038 15.6023C63.8481 16.0285 63.7203 16.5199 63.7203 17.0768V24.7728H60.6351Z" fill="#0B2F51"/>
<path d="M73.2034 25.037C72.3738 25.037 71.6266 24.8893 70.9619 24.5938C70.3028 24.2927 69.7801 23.8495 69.3937 23.2643C69.013 22.679 68.8227 21.9574 68.8227 21.0995C68.8227 20.3609 68.959 19.7501 69.2318 19.2671C69.5045 18.7841 69.8766 18.3978 70.3482 18.108C70.8198 17.8182 71.3511 17.5995 71.942 17.4518C72.5386 17.2984 73.1551 17.1876 73.7914 17.1194C74.5585 17.0398 75.1806 16.9688 75.6579 16.9063C76.1352 16.8381 76.4818 16.7359 76.6977 16.5995C76.9193 16.4574 77.0301 16.2387 77.0301 15.9432V15.8921C77.0301 15.2501 76.8397 14.7529 76.459 14.4006C76.0784 14.0484 75.5301 13.8722 74.8141 13.8722C74.0585 13.8722 73.459 14.037 73.0159 14.3665C72.5784 14.6961 72.2829 15.0853 72.1295 15.5341L69.2488 15.1251C69.4761 14.3296 69.8511 13.6648 70.3738 13.1307C70.8965 12.591 71.5357 12.1876 72.2914 11.9205C73.0471 11.6478 73.8823 11.5114 74.7971 11.5114C75.4278 11.5114 76.0556 11.5853 76.6806 11.733C77.3056 11.8807 77.8767 12.1251 78.3937 12.466C78.9107 12.8012 79.3255 13.2586 79.638 13.8381C79.9562 14.4177 80.1153 15.1421 80.1153 16.0114V24.7728H77.1494V22.9745H77.0471C76.8596 23.3381 76.5954 23.679 76.2545 23.9972C75.9193 24.3097 75.496 24.5626 74.9846 24.7557C74.4789 24.9432 73.8852 25.037 73.2034 25.037ZM74.0045 22.7699C74.6238 22.7699 75.1607 22.6478 75.6153 22.4035C76.0698 22.1535 76.4193 21.8239 76.6636 21.4148C76.9136 21.0057 77.0386 20.5597 77.0386 20.0768V18.5341C76.942 18.6137 76.7772 18.6876 76.5443 18.7557C76.317 18.8239 76.0613 18.8836 75.7772 18.9347C75.4931 18.9859 75.2119 19.0313 74.9335 19.0711C74.6551 19.1109 74.4136 19.1449 74.209 19.1734C73.7488 19.2359 73.3369 19.3381 72.9732 19.4802C72.6096 19.6222 72.3227 19.8211 72.1124 20.0768C71.9022 20.3268 71.7971 20.6506 71.7971 21.0484C71.7971 21.6165 72.0045 22.0455 72.4193 22.3353C72.834 22.6251 73.3624 22.7699 74.0045 22.7699Z" fill="#0B2F51"/>
<path d="M93.962 11.6819L89.3001 24.7728H85.891L81.229 11.6819H84.5188L87.5273 21.4063H87.6637L90.6807 11.6819H93.962Z" fill="#0B2F51"/>
<path d="M100.967 25.0285C99.6546 25.0285 98.5211 24.7557 97.5665 24.2103C96.6176 23.6591 95.8875 22.8807 95.3762 21.8751C94.8648 20.8637 94.6091 19.6734 94.6091 18.304C94.6091 16.9574 94.8648 15.7756 95.3762 14.7586C95.8932 13.7359 96.6148 12.9404 97.5409 12.3722C98.4671 11.7984 99.5551 11.5114 100.805 11.5114C101.612 11.5114 102.373 11.6421 103.089 11.9035C103.811 12.1591 104.447 12.5569 104.998 13.0966C105.555 13.6364 105.993 14.3239 106.311 15.1591C106.629 15.9887 106.788 16.9773 106.788 18.1251V19.0711H96.058V16.9915H103.831C103.825 16.4006 103.697 15.8751 103.447 15.4148C103.197 14.9489 102.848 14.5824 102.399 14.3154C101.956 14.0484 101.439 13.9148 100.848 13.9148C100.217 13.9148 99.6631 14.0682 99.1858 14.3751C98.7086 14.6762 98.3364 15.0739 98.0693 15.5682C97.808 16.0569 97.6745 16.5938 97.6688 17.179V18.9944C97.6688 19.7557 97.808 20.4091 98.0864 20.9546C98.3648 21.4944 98.754 21.9091 99.254 22.1989C99.754 22.483 100.339 22.6251 101.01 22.6251C101.459 22.6251 101.865 22.5626 102.228 22.4376C102.592 22.3069 102.907 22.1165 103.174 21.8665C103.442 21.6165 103.643 21.3069 103.78 20.9376L106.66 21.2614C106.478 22.0228 106.132 22.6876 105.62 23.2557C105.115 23.8182 104.467 24.2557 103.677 24.5682C102.888 24.8751 101.984 25.0285 100.967 25.0285Z" fill="#0B2F51"/>
<path d="M112.003 7.31824V24.7728H108.918V7.31824H112.003Z" fill="#0B2F51"/>
<path d="M114.832 24.7728V7.31824H121.514C122.776 7.31824 123.824 7.5171 124.659 7.91483C125.5 8.30687 126.128 8.84381 126.543 9.52562C126.963 10.2074 127.173 10.9802 127.173 11.8438C127.173 12.554 127.037 13.162 126.764 13.6677C126.491 14.1677 126.125 14.5739 125.665 14.8864C125.205 15.1989 124.69 15.4234 124.122 15.5597V15.7302C124.741 15.7643 125.335 15.9546 125.903 16.3012C126.477 16.6421 126.946 17.1251 127.31 17.7501C127.673 18.3751 127.855 19.1307 127.855 20.0171C127.855 20.9205 127.636 21.733 127.199 22.4546C126.761 23.1705 126.102 23.7359 125.222 24.1506C124.341 24.5654 123.233 24.7728 121.898 24.7728H114.832ZM117.994 22.1307H121.395C122.543 22.1307 123.369 21.912 123.875 21.4745C124.386 21.0313 124.642 20.4631 124.642 19.7699C124.642 19.2529 124.514 18.787 124.258 18.3722C124.003 17.9518 123.639 17.6222 123.168 17.3836C122.696 17.1393 122.133 17.0171 121.48 17.0171H117.994V22.1307ZM117.994 14.7415H121.122C121.668 14.7415 122.159 14.6421 122.597 14.4432C123.034 14.2387 123.378 13.9518 123.628 13.5824C123.883 13.2074 124.011 12.7643 124.011 12.2529C124.011 11.5768 123.773 11.0199 123.295 10.5824C122.824 10.1449 122.122 9.92619 121.19 9.92619H117.994V14.7415Z" fill="#0B2F51"/>
<path d="M138.333 19.2671V11.6819H141.418V24.7728H138.427V22.4461H138.291C137.995 23.179 137.509 23.7785 136.833 24.2444C136.163 24.7103 135.336 24.9432 134.353 24.9432C133.495 24.9432 132.737 24.7529 132.077 24.3722C131.424 23.9859 130.913 23.4262 130.543 22.6932C130.174 21.9546 129.989 21.0626 129.989 20.0171V11.6819H133.075V19.5398C133.075 20.3694 133.302 21.0285 133.756 21.5171C134.211 22.0057 134.808 22.2501 135.546 22.2501C136.001 22.2501 136.441 22.1393 136.867 21.9177C137.293 21.6961 137.643 21.3665 137.916 20.929C138.194 20.4859 138.333 19.9319 138.333 19.2671Z" fill="#0B2F51"/>
<path d="M148.969 25.0029C147.941 25.0029 147.02 24.7387 146.208 24.2103C145.395 23.6819 144.753 22.9148 144.281 21.9091C143.81 20.9035 143.574 19.6819 143.574 18.2444C143.574 16.7898 143.813 15.5626 144.29 14.5626C144.773 13.5569 145.423 12.7984 146.242 12.287C147.06 11.7699 147.972 11.5114 148.977 11.5114C149.745 11.5114 150.375 11.6421 150.87 11.9035C151.364 12.1591 151.756 12.4688 152.046 12.8324C152.335 13.1904 152.56 13.5285 152.719 13.8466H152.847V7.31824H155.941V24.7728H152.906V22.7103H152.719C152.56 23.0285 152.33 23.3665 152.029 23.7245C151.727 24.0768 151.33 24.3779 150.835 24.6279C150.341 24.8779 149.719 25.0029 148.969 25.0029ZM149.83 22.4716C150.483 22.4716 151.04 22.2955 151.5 21.9432C151.96 21.5853 152.31 21.0881 152.549 20.4518C152.787 19.8154 152.906 19.0739 152.906 18.2273C152.906 17.3807 152.787 16.6449 152.549 16.0199C152.316 15.3949 151.969 14.9091 151.509 14.5626C151.054 14.216 150.495 14.0427 149.83 14.0427C149.142 14.0427 148.568 14.2216 148.108 14.5796C147.648 14.9376 147.301 15.4319 147.068 16.0626C146.835 16.6932 146.719 17.4148 146.719 18.2273C146.719 19.0455 146.835 19.7756 147.068 20.4177C147.307 21.054 147.656 21.5569 148.117 21.9262C148.583 22.2898 149.154 22.4716 149.83 22.4716Z" fill="#0B2F51"/>
<path d="M163.606 25.0029C162.578 25.0029 161.657 24.7387 160.845 24.2103C160.032 23.6819 159.39 22.9148 158.919 21.9091C158.447 20.9035 158.211 19.6819 158.211 18.2444C158.211 16.7898 158.45 15.5626 158.927 14.5626C159.41 13.5569 160.061 12.7984 160.879 12.287C161.697 11.7699 162.609 11.5114 163.615 11.5114C164.382 11.5114 165.012 11.6421 165.507 11.9035C166.001 12.1591 166.393 12.4688 166.683 12.8324C166.973 13.1904 167.197 13.5285 167.356 13.8466H167.484V7.31824H170.578V24.7728H167.544V22.7103H167.356C167.197 23.0285 166.967 23.3665 166.666 23.7245C166.365 24.0768 165.967 24.3779 165.473 24.6279C164.978 24.8779 164.356 25.0029 163.606 25.0029ZM164.467 22.4716C165.12 22.4716 165.677 22.2955 166.137 21.9432C166.598 21.5853 166.947 21.0881 167.186 20.4518C167.424 19.8154 167.544 19.0739 167.544 18.2273C167.544 17.3807 167.424 16.6449 167.186 16.0199C166.953 15.3949 166.606 14.9091 166.146 14.5626C165.691 14.216 165.132 14.0427 164.467 14.0427C163.779 14.0427 163.206 14.2216 162.745 14.5796C162.285 14.9376 161.939 15.4319 161.706 16.0626C161.473 16.6932 161.356 17.4148 161.356 18.2273C161.356 19.0455 161.473 19.7756 161.706 20.4177C161.944 21.054 162.294 21.5569 162.754 21.9262C163.22 22.2898 163.791 22.4716 164.467 22.4716Z" fill="#0B2F51"/>
<path d="M175.303 29.6819C174.883 29.6819 174.493 29.6478 174.135 29.5796C173.783 29.5171 173.502 29.4432 173.292 29.358L174.008 26.9546C174.456 27.0853 174.857 27.1478 175.209 27.1421C175.562 27.1364 175.871 27.0256 176.138 26.8097C176.411 26.5995 176.641 26.2472 176.829 25.7529L177.093 25.0455L172.346 11.6819H175.618L178.635 21.5682H178.772L181.797 11.6819H185.079L179.837 26.358C179.593 27.0512 179.269 27.6449 178.865 28.1393C178.462 28.6393 177.968 29.0199 177.383 29.2813C176.803 29.5484 176.11 29.6819 175.303 29.6819Z" fill="#0B2F51"/>
<defs>
<clipPath id="clip0_1243_8278">
<rect width="42" height="32" fill="white"/>
</clipPath>
</defs>
</svg>
