<svg width="266" height="157" viewBox="0 0 266 157" fill="none" xmlns="http://www.w3.org/2000/svg">
<path d="M5.04854 108.517C4.2081 107.8 2.94575 107.901 2.22899 108.741C1.51223 109.582 1.61249 110.844 2.45293 111.561L5.04854 108.517ZM159.65 50.7064L159.113 48.7798L159.113 48.78L159.65 50.7064ZM155.057 147.971L155.922 146.168L155.921 146.168L155.057 147.971ZM262.317 2.42617C262.056 1.35289 260.974 0.694415 259.901 0.95541C258.827 1.21643 258.169 2.29809 258.43 3.37138L262.317 2.42617ZM3.3355 131.631C3.49567 132.723 4.51149 133.48 5.60438 133.319C6.69727 133.159 7.45339 132.143 7.29322 131.05L3.3355 131.631ZM2.0037 108.752L1.46384 106.826C0.495158 107.097 -0.121046 108.046 0.024839 109.042L2.0037 108.752ZM24.7051 103.97C25.732 103.563 26.2348 102.401 25.828 101.374C25.4212 100.347 24.2589 99.8445 23.232 100.251L24.7051 103.97ZM3.75073 110.039C2.45293 111.561 2.4537 111.561 2.45479 111.562C2.45557 111.563 2.45697 111.564 2.45852 111.565C2.46163 111.568 2.46599 111.572 2.47159 111.577C2.48278 111.586 2.49893 111.6 2.51998 111.618C2.56209 111.653 2.62384 111.705 2.70482 111.773C2.86678 111.908 3.10572 112.106 3.41851 112.362C4.04406 112.874 4.96514 113.616 6.15671 114.545C8.53959 116.404 12.0059 119.014 16.3552 122.032C25.049 128.063 37.2961 135.742 51.4908 142.305C79.7685 155.38 116.357 164.289 147.882 145.996L146.878 144.266L145.874 142.536C116.108 159.809 81.1328 151.604 53.1696 138.675C39.2439 132.235 27.2012 124.688 18.6354 118.745C14.355 115.775 10.9489 113.211 8.61697 111.391C7.45113 110.482 6.55415 109.759 5.951 109.266C5.64944 109.019 5.42137 108.83 5.26991 108.703C5.19418 108.64 5.13761 108.593 5.10058 108.561C5.08207 108.546 5.06844 108.534 5.05975 108.527C5.05541 108.523 5.05229 108.52 5.05042 108.519C5.04949 108.518 5.04902 108.518 5.04855 108.517C5.04839 108.517 5.04854 108.517 3.75073 110.039ZM146.878 144.266L147.882 145.996C179.12 127.869 189.994 101.788 189.115 81.0346C188.678 70.7061 185.317 61.6221 180.001 55.5929C174.641 49.5135 167.229 46.5179 159.113 48.7798L159.65 50.7064L160.187 52.633C166.563 50.8559 172.462 53.0898 177.001 58.2382C181.584 63.4367 184.711 71.5787 185.119 81.204C185.93 100.359 175.927 125.096 145.874 142.536L146.878 144.266ZM159.65 50.7064L159.113 48.78C151.276 50.9665 144.072 57.0214 138.435 64.9732C132.778 72.9524 128.567 83.0181 126.803 93.5468C123.271 114.63 129.551 137.958 154.192 149.774L155.057 147.971L155.921 146.168C133.331 135.335 127.42 114.073 130.748 94.2078C132.415 84.2621 136.397 74.7635 141.698 67.2866C147.018 59.7821 153.536 54.4887 160.188 52.6328L159.65 50.7064ZM155.057 147.971L154.192 149.774C166.69 155.769 181.051 154.441 195.031 148.068C209.009 141.695 222.783 130.215 234.377 115.539C257.545 86.2106 272.345 43.663 262.317 2.42617L260.373 2.89877L258.43 3.37138C268.097 43.1241 253.848 84.4373 231.238 113.06C219.942 127.359 206.645 138.377 193.372 144.428C180.101 150.478 167.032 151.497 155.922 146.168L155.057 147.971ZM5.31436 131.341L7.29322 131.05L3.98256 108.462L2.0037 108.752L0.024839 109.042L3.3355 131.631L5.31436 131.341ZM2.0037 108.752C2.54356 110.677 2.54365 110.677 2.54381 110.677C2.54395 110.677 2.54418 110.677 2.54447 110.677C2.54504 110.677 2.54588 110.677 2.54699 110.676C2.54921 110.676 2.5525 110.675 2.55685 110.674C2.56555 110.671 2.57847 110.668 2.5955 110.663C2.62955 110.653 2.68003 110.639 2.74597 110.62C2.87786 110.583 3.07161 110.529 3.31955 110.459C3.81541 110.319 4.52812 110.117 5.3963 109.87C7.13235 109.376 9.49146 108.699 11.9822 107.971C16.9099 106.529 22.5103 104.84 24.7051 103.97L23.9685 102.111L23.232 100.251C21.2523 101.035 15.8703 102.666 10.8592 104.132C8.38053 104.857 6.03114 105.53 4.30105 106.023C3.43615 106.269 2.72637 106.47 2.23302 106.609C1.98635 106.679 1.79381 106.733 1.66305 106.77C1.59767 106.788 1.54774 106.802 1.51422 106.812C1.49746 106.816 1.4848 106.82 1.47637 106.822C1.47215 106.823 1.46898 106.824 1.46689 106.825C1.46585 106.825 1.46507 106.825 1.46456 106.826C1.4643 106.826 1.46412 106.826 1.464 106.826C1.46388 106.826 1.46384 106.826 2.0037 108.752Z" fill="#0094AC"/>
</svg>
